<svg width="310" height="349" viewBox="0 0 310 349" fill="none" xmlns="http://www.w3.org/2000/svg">
<g opacity="0.0526316">
<path d="M28.1632 281.449C35.7331 291.52 59.927 308.372 96.1443 295.215C141.416 278.768 158.925 235.171 199.33 212.565C229.153 195.881 309.287 170.836 355.365 198.511" stroke="white" stroke-width="1.45842"/>
<path d="M28.1632 281.449C35.7331 291.52 59.927 308.372 96.1443 295.215C141.416 278.768 158.925 235.171 199.33 212.565C229.153 195.881 309.287 170.836 355.365 198.511" stroke="url(#paint0_linear_1:694)" stroke-width="1.45842"/>
</g>
<g opacity="0.105263">
<path d="M20.6967 260.335C27.1724 271.143 49.4722 290.432 86.8664 281.132C133.609 269.507 155.579 227.979 198.127 209.721C229.529 196.245 311.842 179.715 354.775 212.054" stroke="white" stroke-width="1.45842"/>
<path d="M20.6967 260.335C27.1724 271.143 49.4722 290.432 86.8664 281.132C133.609 269.507 155.579 227.979 198.127 209.721C229.529 196.245 311.842 179.715 354.775 212.054" stroke="url(#paint1_linear_1:694)" stroke-width="1.45842"/>
</g>
<g opacity="0.157895">
<path d="M15.056 238.938C20.3665 250.363 40.5279 271.877 78.6893 266.537C126.391 259.862 152.582 220.858 196.804 207.148C229.444 197.028 313.034 189.192 352.351 225.842" stroke="white" stroke-width="1.45842"/>
<path d="M15.056 238.938C20.3665 250.363 40.5279 271.877 78.6893 266.537C126.391 259.862 152.582 220.858 196.804 207.148C229.444 197.028 313.034 189.192 352.351 225.842" stroke="url(#paint2_linear_1:694)" stroke-width="1.45842"/>
</g>
<g opacity="0.210526">
<path d="M11.2607 217.448C15.3479 229.365 33.15 252.869 71.6605 251.547C119.799 249.895 149.923 213.843 195.336 204.829C228.855 198.177 312.806 199.121 348.077 239.68" stroke="white" stroke-width="1.45842"/>
<path d="M11.2607 217.448C15.3479 229.365 33.15 252.869 71.6605 251.547C119.799 249.895 149.923 213.843 195.336 204.829C228.855 198.177 312.806 199.121 348.077 239.68" stroke="url(#paint3_linear_1:694)" stroke-width="1.45842"/>
</g>
<g opacity="0.263158">
<path d="M9.31056 196.059C12.1297 208.338 27.3774 233.574 65.8152 236.285C113.862 239.673 147.59 206.967 193.697 202.751C227.727 199.638 311.12 209.352 341.958 253.376" stroke="white" stroke-width="1.45842"/>
<path d="M9.31056 196.059C12.1297 208.338 27.3774 233.574 65.8152 236.285C113.862 239.673 147.59 206.967 193.697 202.751C227.727 199.638 311.12 209.352 341.958 253.376" stroke="url(#paint4_linear_1:694)" stroke-width="1.45842"/>
</g>
<g opacity="0.315789">
<path d="M9.18509 174.963C10.7052 187.47 23.2315 214.161 61.1754 220.875C108.605 229.267 145.567 200.266 191.862 200.892C226.031 201.354 307.951 219.732 334.019 266.737" stroke="white" stroke-width="1.45842"/>
<path d="M9.18509 174.963C10.7052 187.47 23.2315 214.161 61.1754 220.875C108.605 229.267 145.567 200.266 191.862 200.892C226.031 201.354 307.951 219.732 334.019 266.737" stroke="url(#paint5_linear_1:694)" stroke-width="1.45842"/>
</g>
<g opacity="0.368421">
<path d="M10.843 154.349C11.0476 166.946 20.7152 194.801 57.7494 205.445C104.042 218.749 143.833 193.77 189.809 199.231C223.742 203.262 303.293 230.102 324.304 279.575" stroke="white" stroke-width="1.45842"/>
<path d="M10.843 154.349C11.0476 166.946 20.7152 194.801 57.7494 205.445C104.042 218.749 143.833 193.77 189.809 199.231C223.742 203.262 303.293 230.102 324.304 279.575" stroke="url(#paint6_linear_1:694)" stroke-width="1.45842"/>
</g>
<g opacity="0.421053">
<path d="M14.2249 134.402C13.1115 146.952 19.8146 175.665 55.5334 190.121C100.182 208.191 142.366 187.508 187.519 197.745C220.845 205.301 297.154 240.31 312.879 291.708" stroke="white" stroke-width="1.45842"/>
<path d="M14.2249 134.402C13.1115 146.952 19.8146 175.665 55.5334 190.121C100.182 208.191 142.366 187.508 187.519 197.745C220.845 205.301 297.154 240.31 312.879 291.708" stroke="url(#paint7_linear_1:694)" stroke-width="1.45842"/>
</g>
<g opacity="0.473684">
<path d="M19.2512 115.298C16.8322 127.662 20.4971 156.918 54.5092 175.029C97.0244 197.667 141.139 181.507 184.975 196.408C217.329 207.406 289.56 250.199 299.827 302.96" stroke="white" stroke-width="1.45842"/>
<path d="M19.2512 115.298C16.8322 127.662 20.4971 156.918 54.5092 175.029C97.0244 197.667 141.139 181.507 184.975 196.408C217.329 207.406 289.56 250.199 299.827 302.96" stroke="url(#paint8_linear_1:694)" stroke-width="1.45842"/>
</g>
<g opacity="0.526316">
<path d="M25.8247 97.2035C22.1265 109.247 22.7133 138.726 54.646 160.293C94.5619 187.251 140.124 175.79 182.162 195.192C213.189 209.512 280.552 259.621 285.247 313.165" stroke="white" stroke-width="1.45842"/>
<path d="M25.8247 97.2035C22.1265 109.247 22.7133 138.726 54.646 160.293C94.5619 187.251 140.124 175.79 182.162 195.192C213.189 209.512 280.552 259.621 285.247 313.165" stroke="url(#paint9_linear_1:694)" stroke-width="1.45842"/>
</g>
<g opacity="0.578947">
<path d="M33.8319 80.275C28.895 91.8661 26.3972 121.245 55.9007 146.031C92.7801 177.014 139.29 170.379 179.07 194.068C208.431 211.553 270.187 268.429 269.259 322.171" stroke="white" stroke-width="1.45842"/>
<path d="M33.8319 80.275C28.895 91.8661 26.3972 121.245 55.9007 146.031C92.7801 177.014 139.29 170.379 179.07 194.068C208.431 211.553 270.187 268.429 269.259 322.171" stroke="url(#paint10_linear_1:694)" stroke-width="1.45842"/>
</g>
<g opacity="0.631579">
<path d="M43.1425 64.6566C37.0211 75.6682 31.4661 104.625 58.2171 132.359C91.6558 167.027 138.605 165.29 175.69 193.008C203.062 213.466 258.535 276.485 251.995 329.836" stroke="white" stroke-width="1.45842"/>
<path d="M43.1425 64.6566C37.0211 75.6682 31.4661 104.625 58.2171 132.359C91.6558 167.027 138.605 165.29 175.69 193.008C203.062 213.466 258.535 276.485 251.995 329.836" stroke="url(#paint11_linear_1:694)" stroke-width="1.45842"/>
</g>
<g opacity="0.684211">
<path d="M53.6126 50.477C46.3738 60.7884 37.8223 89.0059 61.5277 119.385C91.1595 157.358 138.033 160.538 172.018 191.981C197.102 215.187 245.683 283.66 233.602 336.035" stroke="white" stroke-width="1.45842"/>
<path d="M53.6126 50.477C46.3738 60.7884 37.8223 89.0059 61.5277 119.385C91.1595 157.358 138.033 160.538 172.018 191.981C197.102 215.187 245.683 283.66 233.602 336.035" stroke="url(#paint12_linear_1:694)" stroke-width="1.45842"/>
</g>
<g opacity="0.736842">
<path d="M65.0857 37.849C56.8086 47.3473 45.3545 74.5164 65.7546 107.207C91.2548 148.069 137.539 156.132 168.051 190.954C190.572 216.656 231.73 289.832 214.24 340.657" stroke="white" stroke-width="1.45842"/>
<path d="M65.0857 37.849C56.8086 47.3473 45.3545 74.5164 65.7546 107.207C91.2548 148.069 137.539 156.132 168.051 190.954C190.572 216.656 231.73 289.832 214.24 340.657" stroke="url(#paint13_linear_1:694)" stroke-width="1.45842"/>
</g>
<g opacity="0.789474">
<path d="M77.3941 26.87C68.1696 35.4511 53.9383 61.2741 70.8096 95.9176C91.8987 139.222 137.087 152.078 163.792 189.899C183.502 217.814 216.786 294.891 194.08 343.61" stroke="white" stroke-width="1.45842"/>
<path d="M77.3941 26.87C68.1696 35.4511 53.9383 61.2741 70.8096 95.9176C91.8987 139.222 137.087 152.078 163.792 189.899C183.502 217.814 216.786 294.891 194.08 343.61" stroke="url(#paint14_linear_1:694)" stroke-width="1.45842"/>
</g>
<g opacity="0.842105">
<path d="M90.3604 17.6173C80.2894 25.1871 63.4368 49.381 76.5945 85.5983C93.0416 130.87 136.638 148.379 159.244 188.784C175.928 218.607 200.973 298.741 173.298 344.819" stroke="white" stroke-width="1.45842"/>
<path d="M90.3604 17.6173C80.2894 25.1871 63.4368 49.381 76.5945 85.5983C93.0416 130.87 136.638 148.379 159.244 188.784C175.928 218.607 200.973 298.741 173.298 344.819" stroke="url(#paint15_linear_1:694)" stroke-width="1.45842"/>
</g>
<g opacity="0.894737">
<path d="M103.801 10.1508C92.9939 16.6264 73.7046 38.9262 83.0045 76.3204C94.6292 123.063 136.157 145.033 154.415 187.581C167.891 218.984 184.422 301.296 152.083 344.229" stroke="white" stroke-width="1.45842"/>
<path d="M103.801 10.1508C92.9939 16.6264 73.7046 38.9262 83.0045 76.3204C94.6292 123.063 136.157 145.033 154.415 187.581C167.891 218.984 184.422 301.296 152.083 344.229" stroke="url(#paint16_linear_1:694)" stroke-width="1.45842"/>
</g>
<g opacity="0.947368">
<path d="M117.526 4.51C106.101 9.82051 84.5868 29.9819 89.927 68.1434C96.6021 115.845 135.606 142.036 149.316 186.258C159.436 218.898 167.272 302.488 130.623 341.805" stroke="white" stroke-width="1.45842"/>
<path d="M117.526 4.51C106.101 9.82051 84.5868 29.9819 89.927 68.1434C96.6021 115.845 135.606 142.036 149.316 186.258C159.436 218.898 167.272 302.488 130.623 341.805" stroke="url(#paint17_linear_1:694)" stroke-width="1.45842"/>
</g>
<path d="M131.344 0.714783C119.427 4.80199 95.9227 22.6041 97.2446 61.1146C98.897 109.253 134.949 139.377 143.962 184.791C150.615 218.309 149.671 302.26 109.112 337.531" stroke="white" stroke-width="1.45842"/>
<path d="M131.344 0.714783C119.427 4.80199 95.9227 22.6041 97.2446 61.1146C98.897 109.253 134.949 139.377 143.962 184.791C150.615 218.309 149.671 302.26 109.112 337.531" stroke="url(#paint18_linear_1:694)" stroke-width="1.45842"/>
<defs>
<linearGradient id="paint0_linear_1:694" x1="31.0117" y1="290.215" x2="351.343" y2="186.133" gradientUnits="userSpaceOnUse">
<stop stop-color="#FFB132"/>
<stop offset="0.447917" stop-color="#FE0E47" stop-opacity="0.552083"/>
<stop offset="1" stop-color="#8F00FF"/>
</linearGradient>
<linearGradient id="paint1_linear_1:694" x1="22.6132" y1="269.352" x2="352.069" y2="199.324" gradientUnits="userSpaceOnUse">
<stop stop-color="#FFB132"/>
<stop offset="0.447917" stop-color="#FE0E47" stop-opacity="0.552083"/>
<stop offset="1" stop-color="#8F00FF"/>
</linearGradient>
<linearGradient id="paint2_linear_1:694" x1="16.0195" y1="248.105" x2="350.991" y2="212.898" gradientUnits="userSpaceOnUse">
<stop stop-color="#FFB132"/>
<stop offset="0.447917" stop-color="#FE0E47" stop-opacity="0.552083"/>
<stop offset="1" stop-color="#8F00FF"/>
</linearGradient>
<linearGradient id="paint3_linear_1:694" x1="11.2607" y1="226.666" x2="348.077" y2="226.666" gradientUnits="userSpaceOnUse">
<stop stop-color="#FFB132"/>
<stop offset="0.447917" stop-color="#FE0E47" stop-opacity="0.552083"/>
<stop offset="1" stop-color="#8F00FF"/>
</linearGradient>
<linearGradient id="paint4_linear_1:694" x1="8.34703" y1="205.226" x2="343.318" y2="240.433" gradientUnits="userSpaceOnUse">
<stop stop-color="#FFB132"/>
<stop offset="0.447917" stop-color="#FE0E47" stop-opacity="0.552083"/>
<stop offset="1" stop-color="#8F00FF"/>
</linearGradient>
<linearGradient id="paint5_linear_1:694" x1="7.2686" y1="183.979" x2="336.725" y2="254.007" gradientUnits="userSpaceOnUse">
<stop stop-color="#FFB132"/>
<stop offset="0.447917" stop-color="#FE0E47" stop-opacity="0.552083"/>
<stop offset="1" stop-color="#8F00FF"/>
</linearGradient>
<linearGradient id="paint6_linear_1:694" x1="7.99457" y1="163.116" x2="328.326" y2="267.198" gradientUnits="userSpaceOnUse">
<stop stop-color="#FFB132"/>
<stop offset="0.447917" stop-color="#FE0E47" stop-opacity="0.552083"/>
<stop offset="1" stop-color="#8F00FF"/>
</linearGradient>
<linearGradient id="paint7_linear_1:694" x1="10.4757" y1="142.823" x2="318.173" y2="279.819" gradientUnits="userSpaceOnUse">
<stop stop-color="#FFB132"/>
<stop offset="0.447917" stop-color="#FE0E47" stop-opacity="0.552083"/>
<stop offset="1" stop-color="#8F00FF"/>
</linearGradient>
<linearGradient id="paint8_linear_1:694" x1="14.6423" y1="123.281" x2="306.334" y2="291.689" gradientUnits="userSpaceOnUse">
<stop stop-color="#FFB132"/>
<stop offset="0.447917" stop-color="#FE0E47" stop-opacity="0.552083"/>
<stop offset="1" stop-color="#8F00FF"/>
</linearGradient>
<linearGradient id="paint9_linear_1:694" x1="20.4066" y1="104.661" x2="292.897" y2="302.636" gradientUnits="userSpaceOnUse">
<stop stop-color="#FFB132"/>
<stop offset="0.447917" stop-color="#FE0E47" stop-opacity="0.552083"/>
<stop offset="1" stop-color="#8F00FF"/>
</linearGradient>
<linearGradient id="paint10_linear_1:694" x1="27.6639" y1="87.1252" x2="277.967" y2="312.499" gradientUnits="userSpaceOnUse">
<stop stop-color="#FFB132"/>
<stop offset="0.447917" stop-color="#FE0E47" stop-opacity="0.552083"/>
<stop offset="1" stop-color="#8F00FF"/>
</linearGradient>
<linearGradient id="paint11_linear_1:694" x1="36.2923" y1="70.8245" x2="261.666" y2="321.128" gradientUnits="userSpaceOnUse">
<stop stop-color="#FFB132"/>
<stop offset="0.447917" stop-color="#FE0E47" stop-opacity="0.552083"/>
<stop offset="1" stop-color="#8F00FF"/>
</linearGradient>
<linearGradient id="paint12_linear_1:694" x1="46.1553" y1="55.8951" x2="244.131" y2="328.385" gradientUnits="userSpaceOnUse">
<stop stop-color="#FFB132"/>
<stop offset="0.447917" stop-color="#FE0E47" stop-opacity="0.552083"/>
<stop offset="1" stop-color="#8F00FF"/>
</linearGradient>
<linearGradient id="paint13_linear_1:694" x1="57.1028" y1="42.458" x2="225.511" y2="334.149" gradientUnits="userSpaceOnUse">
<stop stop-color="#FFB132"/>
<stop offset="0.447917" stop-color="#FE0E47" stop-opacity="0.552083"/>
<stop offset="1" stop-color="#8F00FF"/>
</linearGradient>
<linearGradient id="paint14_linear_1:694" x1="68.9732" y1="30.6193" x2="205.969" y2="338.316" gradientUnits="userSpaceOnUse">
<stop stop-color="#FFB132"/>
<stop offset="0.447917" stop-color="#FE0E47" stop-opacity="0.552083"/>
<stop offset="1" stop-color="#8F00FF"/>
</linearGradient>
<linearGradient id="paint15_linear_1:694" x1="81.5938" y1="20.4658" x2="185.676" y2="340.797" gradientUnits="userSpaceOnUse">
<stop stop-color="#FFB132"/>
<stop offset="0.447917" stop-color="#FE0E47" stop-opacity="0.552083"/>
<stop offset="1" stop-color="#8F00FF"/>
</linearGradient>
<linearGradient id="paint16_linear_1:694" x1="94.7845" y1="12.0673" x2="164.813" y2="341.523" gradientUnits="userSpaceOnUse">
<stop stop-color="#FFB132"/>
<stop offset="0.447917" stop-color="#FE0E47" stop-opacity="0.552083"/>
<stop offset="1" stop-color="#8F00FF"/>
</linearGradient>
<linearGradient id="paint17_linear_1:694" x1="108.359" y1="5.47352" x2="143.566" y2="340.445" gradientUnits="userSpaceOnUse">
<stop stop-color="#FFB132"/>
<stop offset="0.447917" stop-color="#FE0E47" stop-opacity="0.552083"/>
<stop offset="1" stop-color="#8F00FF"/>
</linearGradient>
<linearGradient id="paint18_linear_1:694" x1="122.126" y1="0.714783" x2="122.126" y2="337.531" gradientUnits="userSpaceOnUse">
<stop stop-color="#FFB132"/>
<stop offset="0.447917" stop-color="#FE0E47" stop-opacity="0.552083"/>
<stop offset="1" stop-color="#8F00FF"/>
</linearGradient>
</defs>
</svg>
