<svg width="191" height="603" viewBox="0 0 191 603" fill="none" xmlns="http://www.w3.org/2000/svg">
<path d="M-417.118 155.038C-460.073 -0.617615 -300.951 -16.4615 -186.118 30.5385C-119.118 54.71 -75.1176 -20.4615 7.88242 9.53846C90.8824 39.5385 -8.61737 134.039 118.383 182.539C245.383 231.039 183.382 448.038 72.3824 450.538C-38.6176 453.038 -8.11761 489.538 -119.118 573.038C-230.118 656.538 -417.118 540.538 -370.618 418.038C-324.118 295.538 -370.618 323.538 -417.118 155.038Z" stroke="url(#paint0_linear_1:588)" stroke-width="3"/>
<path d="M-395.403 165.295C-434.904 22.4416 -288.137 5.86378 -182.046 49.519C-119.583 72.3428 -78.0004 3.43194 -1.50037 31.0835C76.7065 59.3535 -14.7603 145.791 101.925 191.066C218.876 236.598 163.227 437.645 58.8759 439.917C-44.864 442.19 -16.2897 476.747 -119.319 553.265C-222.347 629.784 -394.751 523.292 -352.479 409.198C-310.206 296.809 -352.38 320.721 -395.403 165.295Z" stroke="url(#paint1_linear_1:588)" stroke-width="3"/>
<path d="M-373.688 175.552C-409.734 45.5012 -275.322 28.1895 -177.974 68.4999C-120.048 89.9759 -80.8831 27.3258 -10.8831 52.6289C62.5306 79.1689 -20.9031 157.543 85.4667 199.594C192.37 242.158 143.071 427.252 45.3694 429.297C-51.1104 431.342 -24.4618 463.956 -119.519 533.492C-214.577 603.029 -372.385 506.046 -334.339 400.358C-296.294 298.081 -334.142 317.905 -373.688 175.552Z" stroke="url(#paint2_linear_1:588)" stroke-width="3"/>
<path d="M-351.972 185.809C-384.564 68.5614 -262.508 50.5157 -173.902 87.4813C-120.513 107.61 -83.7656 51.2203 -20.2656 74.1749C48.3549 98.9849 -27.0457 169.296 69.0089 208.122C165.864 247.718 122.916 416.859 31.8632 418.677C-57.3566 420.495 -32.6337 451.165 -119.72 513.72C-206.807 576.275 -350.018 488.801 -316.2 391.519C-282.382 299.353 -315.903 315.089 -351.972 185.809Z" stroke="url(#paint3_linear_1:588)" stroke-width="3"/>
<path d="M-330.257 196.067C-359.394 91.6224 -249.693 72.8428 -169.83 106.464C-120.978 125.244 -86.648 75.1155 -29.648 95.7217C34.1794 118.802 -33.1882 181.05 52.5513 216.651C139.358 253.28 102.761 406.467 18.3571 408.058C-63.6026 409.649 -40.8054 438.376 -119.921 493.949C-199.036 549.522 -327.652 471.556 -298.061 382.681C-268.47 300.625 -297.665 312.273 -330.257 196.067Z" stroke="url(#paint4_linear_1:588)" stroke-width="3"/>
<path d="M-308.541 206.845C-334.224 115.203 -236.879 95.6895 -165.757 125.965C-121.442 143.398 -89.5301 99.5304 -39.0301 117.788C20.0041 139.138 -39.3305 193.323 36.094 225.7C112.853 259.361 82.6063 396.595 4.85123 397.958C-69.8483 399.322 -48.9769 426.106 -120.121 474.697C-191.265 523.289 -305.285 454.831 -279.921 374.362C-254.558 302.418 -279.426 309.978 -308.541 206.845Z" stroke="url(#paint5_linear_1:588)" stroke-width="3"/>
<path d="M-286.825 218.238C-309.054 139.398 -224.063 119.151 -161.685 146.082C-121.906 162.167 -92.4119 124.56 -48.4119 140.469C5.82913 160.089 -45.4724 206.211 19.637 235.363C86.3472 266.056 62.4517 387.337 -8.6543 388.474C-76.0937 389.61 -57.148 414.45 -120.321 456.06C-183.494 497.67 -282.918 438.721 -261.781 366.658C-240.645 304.825 -261.187 308.297 -286.825 218.238Z" stroke="url(#paint6_linear_1:588)" stroke-width="3"/>
<path d="M-265.109 229.664C-283.883 163.628 -211.248 142.647 -157.611 166.233C-122.37 180.971 -95.2931 149.624 -57.7931 163.185C-8.34528 181.075 -51.6137 219.134 3.18048 245.061C59.8424 272.786 42.2978 378.114 -22.1593 379.023C-82.3386 379.932 -65.3186 402.829 -120.52 437.457C-175.722 472.085 -260.55 422.645 -243.641 358.988C-226.732 307.266 -242.947 306.65 -265.109 229.664Z" stroke="url(#paint7_linear_1:588)" stroke-width="3"/>
<path d="M-243.391 241.14C-258.711 187.907 -198.431 166.192 -153.537 186.433C-122.833 199.823 -98.1734 174.737 -67.1734 185.949C-22.5188 202.109 -57.7542 232.105 -13.2751 254.808C33.3386 279.565 22.1447 368.94 -35.6633 369.622C-88.5826 370.304 -73.4883 391.257 -120.719 418.904C-167.95 446.55 -238.181 406.618 -225.499 351.368C-212.817 309.756 -224.706 305.053 -243.391 241.14Z" stroke="url(#paint8_linear_1:588)" stroke-width="3"/>
<defs>
<linearGradient id="paint0_linear_1:588" x1="-117.627" y1="2.35181" x2="-117.627" y2="601.359" gradientUnits="userSpaceOnUse">
<stop stop-color="#FFB132"/>
<stop offset="0.447917" stop-color="#FE0E47" stop-opacity="0.552083"/>
<stop offset="1" stop-color="#8F00FF"/>
</linearGradient>
<linearGradient id="paint1_linear_1:588" x1="-117.314" y1="24.4272" x2="-117.314" y2="579.167" gradientUnits="userSpaceOnUse">
<stop stop-color="#FFB132"/>
<stop offset="0.447917" stop-color="#FE0E47" stop-opacity="0.552083"/>
<stop offset="1" stop-color="#8F00FF"/>
</linearGradient>
<linearGradient id="paint2_linear_1:588" x1="-117" y1="46.5027" x2="-117" y2="556.976" gradientUnits="userSpaceOnUse">
<stop stop-color="#FFB132"/>
<stop offset="0.447917" stop-color="#FE0E47" stop-opacity="0.552083"/>
<stop offset="1" stop-color="#8F00FF"/>
</linearGradient>
<linearGradient id="paint3_linear_1:588" x1="-116.685" y1="68.5781" x2="-116.685" y2="534.785" gradientUnits="userSpaceOnUse">
<stop stop-color="#FFB132"/>
<stop offset="0.447917" stop-color="#FE0E47" stop-opacity="0.552083"/>
<stop offset="1" stop-color="#8F00FF"/>
</linearGradient>
<linearGradient id="paint4_linear_1:588" x1="-116.368" y1="90.6536" x2="-116.368" y2="512.597" gradientUnits="userSpaceOnUse">
<stop stop-color="#FFB132"/>
<stop offset="0.447917" stop-color="#FE0E47" stop-opacity="0.552083"/>
<stop offset="1" stop-color="#8F00FF"/>
</linearGradient>
<linearGradient id="paint5_linear_1:588" x1="-116.048" y1="112.729" x2="-116.048" y2="490.928" gradientUnits="userSpaceOnUse">
<stop stop-color="#FFB132"/>
<stop offset="0.447917" stop-color="#FE0E47" stop-opacity="0.552083"/>
<stop offset="1" stop-color="#8F00FF"/>
</linearGradient>
<linearGradient id="paint6_linear_1:588" x1="-115.726" y1="134.805" x2="-115.726" y2="469.876" gradientUnits="userSpaceOnUse">
<stop stop-color="#FFB132"/>
<stop offset="0.447917" stop-color="#FE0E47" stop-opacity="0.552083"/>
<stop offset="1" stop-color="#8F00FF"/>
</linearGradient>
<linearGradient id="paint7_linear_1:588" x1="-115.399" y1="156.88" x2="-115.399" y2="448.86" gradientUnits="userSpaceOnUse">
<stop stop-color="#FFB132"/>
<stop offset="0.447917" stop-color="#FE0E47" stop-opacity="0.552083"/>
<stop offset="1" stop-color="#8F00FF"/>
</linearGradient>
<linearGradient id="paint8_linear_1:588" x1="-115.064" y1="178.956" x2="-115.064" y2="427.897" gradientUnits="userSpaceOnUse">
<stop stop-color="#FFB132"/>
<stop offset="0.447917" stop-color="#FE0E47" stop-opacity="0.552083"/>
<stop offset="1" stop-color="#8F00FF"/>
</linearGradient>
</defs>
</svg>
