<svg width="299" height="603" viewBox="0 0 299 603" fill="none" xmlns="http://www.w3.org/2000/svg">
<path d="M9.58923 154.944C-33.366 -0.712341 125.756 -16.5562 240.589 30.4438C307.589 54.6152 351.589 -20.5563 434.589 9.44374C517.589 39.4437 418.09 133.944 545.09 182.444C672.09 230.944 610.089 447.944 499.089 450.444C388.089 452.944 418.589 489.444 307.589 572.944C196.589 656.444 9.58949 540.444 56.0894 417.944C102.589 295.444 56.0889 323.444 9.58923 154.944Z" stroke="url(#paint0_linear_1:575)" stroke-width="3"/>
<path d="M248.487 276.082C243.531 261.257 266.746 237.34 285.412 247.547C302.506 256.894 319.912 250.59 331.412 254.757C361.687 265.727 350.551 271.534 364.085 284.563C380.554 300.417 388.412 341.932 350.551 341.932C319.412 341.932 328.729 357.056 305.412 363.757C282.095 370.458 255.652 359.051 255.652 329.02C255.652 317.742 256.742 300.774 248.487 276.082Z" stroke="url(#paint1_linear_1:575)" stroke-width="3"/>
<path d="M31.3042 165.2C-8.19651 22.3469 138.57 5.76905 244.661 49.4242C307.124 72.248 348.707 3.33721 425.207 30.9888C503.414 59.2588 411.947 145.696 528.632 190.971C645.583 236.503 589.934 437.55 485.583 439.823C381.843 442.095 410.417 476.652 307.388 553.171C204.36 629.689 31.9557 523.197 74.2284 409.103C116.501 296.715 74.3271 320.627 31.3042 165.2Z" stroke="url(#paint2_linear_1:575)" stroke-width="3"/>
<path d="M53.0193 175.457C16.973 45.4065 151.385 28.0948 248.733 68.4051C306.659 89.8812 345.824 27.2311 415.824 52.5342C489.238 79.0742 405.804 157.448 512.174 199.499C619.077 242.063 569.779 427.157 472.076 429.202C375.597 431.248 402.245 463.861 307.188 533.398C212.13 602.934 54.3221 505.951 92.3675 400.264C130.413 297.986 92.5654 317.81 53.0193 175.457Z" stroke="url(#paint3_linear_1:575)" stroke-width="3"/>
<path d="M74.7346 185.714C42.1427 68.4667 164.199 50.421 252.805 87.3866C306.194 107.515 342.941 51.1256 406.441 74.0802C475.062 98.8902 399.661 169.201 495.716 208.027C592.571 247.624 549.623 416.764 458.57 418.582C369.35 420.4 394.073 451.071 306.987 513.626C219.9 576.18 76.6886 488.706 110.507 391.424C144.325 299.258 110.804 314.994 74.7346 185.714Z" stroke="url(#paint4_linear_1:575)" stroke-width="3"/>
<path d="M96.45 195.972C67.3126 91.5276 177.014 72.7481 256.877 106.369C305.729 125.15 340.059 75.0208 397.059 95.627C460.886 118.707 393.519 180.955 479.258 216.556C566.065 253.185 529.468 406.372 445.064 407.963C363.104 409.554 385.902 438.281 306.786 493.854C227.671 549.427 99.0553 471.461 128.646 382.586C158.237 300.53 129.042 312.179 96.45 195.972Z" stroke="url(#paint5_linear_1:575)" stroke-width="3"/>
<path d="M118.166 206.75C92.4827 115.108 189.829 95.5948 260.95 125.871C305.265 143.304 337.177 99.4357 387.677 117.693C446.711 139.043 387.377 193.228 462.801 225.605C539.56 259.266 509.313 396.5 431.558 397.864C356.859 399.227 377.73 426.011 306.586 474.602C235.442 523.194 121.422 454.736 146.786 374.267C172.149 302.323 147.281 309.883 118.166 206.75Z" stroke="url(#paint6_linear_1:575)" stroke-width="3"/>
<path d="M139.882 218.143C117.653 139.304 202.644 119.056 265.022 145.987C304.801 162.073 334.295 124.465 378.295 140.375C432.536 159.995 381.235 206.117 446.344 235.269C513.054 265.962 489.159 387.243 418.053 388.379C350.613 389.515 369.559 414.356 306.386 455.965C243.213 497.575 143.79 438.626 164.926 366.563C186.062 304.73 165.52 308.202 139.882 218.143Z" stroke="url(#paint7_linear_1:575)" stroke-width="3"/>
<path d="M161.598 229.57C142.824 163.533 215.459 142.552 269.096 166.138C304.337 180.876 331.414 149.529 368.914 163.09C418.362 180.98 375.093 219.039 429.888 244.966C486.549 272.692 469.005 378.019 404.548 378.928C344.368 379.837 361.388 402.735 306.187 437.363C250.985 471.991 166.157 422.55 183.066 358.893C199.975 307.171 183.76 306.556 161.598 229.57Z" stroke="url(#paint8_linear_1:575)" stroke-width="3"/>
<path d="M183.316 241.046C167.996 187.812 228.276 166.097 273.17 186.338C303.874 199.728 328.534 174.642 359.534 185.855C404.188 202.015 368.953 232.01 413.432 254.713C460.046 279.471 448.852 368.845 391.044 369.527C338.124 370.209 353.219 391.163 305.988 418.809C258.757 446.455 188.526 406.523 201.208 351.273C213.89 309.662 202.001 304.958 183.316 241.046Z" stroke="url(#paint9_linear_1:575)" stroke-width="3"/>
<path d="M205.035 252.594C193.169 212.163 241.094 189.714 277.246 206.611C303.413 218.653 325.655 199.828 350.155 208.692C390.016 223.122 362.814 245.055 396.978 264.533C433.543 286.322 428.7 359.744 377.541 360.198C331.882 360.653 345.051 379.663 305.791 400.328C266.532 420.993 210.896 390.569 219.351 343.725C227.805 312.225 220.243 303.433 205.035 252.594Z" stroke="url(#paint10_linear_1:575)" stroke-width="3"/>
<path d="M226.757 264.253C218.346 236.625 253.916 213.442 281.325 226.994C302.955 237.688 322.779 225.124 340.779 231.639C375.847 244.339 356.678 258.209 380.527 274.462C407.044 293.284 408.552 350.752 364.042 350.98C325.643 351.207 336.886 368.274 305.597 381.957C274.309 395.64 233.27 374.725 237.497 336.287C241.724 314.898 238.488 302.018 226.757 264.253Z" stroke="url(#paint11_linear_1:575)" stroke-width="3"/>
<defs>
<linearGradient id="paint0_linear_1:575" x1="309.08" y1="2.25708" x2="309.08" y2="601.265" gradientUnits="userSpaceOnUse">
<stop stop-color="#FFB132"/>
<stop offset="0.447917" stop-color="#FE0E47" stop-opacity="0.552083"/>
<stop offset="1" stop-color="#8F00FF"/>
</linearGradient>
<linearGradient id="paint1_linear_1:575" x1="312.779" y1="245.087" x2="312.779" y2="365.614" gradientUnits="userSpaceOnUse">
<stop stop-color="#FFB132"/>
<stop offset="0.447917" stop-color="#FE0E47" stop-opacity="0.552083"/>
<stop offset="1" stop-color="#8F00FF"/>
</linearGradient>
<linearGradient id="paint2_linear_1:575" x1="309.393" y1="24.3325" x2="309.393" y2="579.072" gradientUnits="userSpaceOnUse">
<stop stop-color="#FFB132"/>
<stop offset="0.447917" stop-color="#FE0E47" stop-opacity="0.552083"/>
<stop offset="1" stop-color="#8F00FF"/>
</linearGradient>
<linearGradient id="paint3_linear_1:575" x1="309.707" y1="46.408" x2="309.707" y2="556.881" gradientUnits="userSpaceOnUse">
<stop stop-color="#FFB132"/>
<stop offset="0.447917" stop-color="#FE0E47" stop-opacity="0.552083"/>
<stop offset="1" stop-color="#8F00FF"/>
</linearGradient>
<linearGradient id="paint4_linear_1:575" x1="310.022" y1="68.4834" x2="310.022" y2="534.691" gradientUnits="userSpaceOnUse">
<stop stop-color="#FFB132"/>
<stop offset="0.447917" stop-color="#FE0E47" stop-opacity="0.552083"/>
<stop offset="1" stop-color="#8F00FF"/>
</linearGradient>
<linearGradient id="paint5_linear_1:575" x1="310.339" y1="90.5588" x2="310.339" y2="512.502" gradientUnits="userSpaceOnUse">
<stop stop-color="#FFB132"/>
<stop offset="0.447917" stop-color="#FE0E47" stop-opacity="0.552083"/>
<stop offset="1" stop-color="#8F00FF"/>
</linearGradient>
<linearGradient id="paint6_linear_1:575" x1="310.659" y1="112.634" x2="310.659" y2="490.834" gradientUnits="userSpaceOnUse">
<stop stop-color="#FFB132"/>
<stop offset="0.447917" stop-color="#FE0E47" stop-opacity="0.552083"/>
<stop offset="1" stop-color="#8F00FF"/>
</linearGradient>
<linearGradient id="paint7_linear_1:575" x1="310.981" y1="134.71" x2="310.981" y2="469.781" gradientUnits="userSpaceOnUse">
<stop stop-color="#FFB132"/>
<stop offset="0.447917" stop-color="#FE0E47" stop-opacity="0.552083"/>
<stop offset="1" stop-color="#8F00FF"/>
</linearGradient>
<linearGradient id="paint8_linear_1:575" x1="311.308" y1="156.785" x2="311.308" y2="448.765" gradientUnits="userSpaceOnUse">
<stop stop-color="#FFB132"/>
<stop offset="0.447917" stop-color="#FE0E47" stop-opacity="0.552083"/>
<stop offset="1" stop-color="#8F00FF"/>
</linearGradient>
<linearGradient id="paint9_linear_1:575" x1="311.643" y1="178.861" x2="311.643" y2="427.802" gradientUnits="userSpaceOnUse">
<stop stop-color="#FFB132"/>
<stop offset="0.447917" stop-color="#FE0E47" stop-opacity="0.552083"/>
<stop offset="1" stop-color="#8F00FF"/>
</linearGradient>
<linearGradient id="paint10_linear_1:575" x1="311.99" y1="200.936" x2="311.99" y2="406.918" gradientUnits="userSpaceOnUse">
<stop stop-color="#FFB132"/>
<stop offset="0.447917" stop-color="#FE0E47" stop-opacity="0.552083"/>
<stop offset="1" stop-color="#8F00FF"/>
</linearGradient>
<linearGradient id="paint11_linear_1:575" x1="312.36" y1="223.012" x2="312.36" y2="386.158" gradientUnits="userSpaceOnUse">
<stop stop-color="#FFB132"/>
<stop offset="0.447917" stop-color="#FE0E47" stop-opacity="0.552083"/>
<stop offset="1" stop-color="#8F00FF"/>
</linearGradient>
</defs>
</svg>
