<svg width="229" height="221" viewBox="0 0 229 221" fill="none" xmlns="http://www.w3.org/2000/svg">
<g opacity="0.2">
<circle cx="110" cy="110.133" r="109.266" stroke="url(#paint0_linear_1:753)" stroke-width="1.4682"/>
<circle cx="110" cy="110.133" r="109.266" stroke="#F67939" stroke-width="1.4682"/>
<circle cx="110" cy="110.133" r="109.266" stroke="url(#paint1_linear_1:753)" stroke-opacity="0.35" stroke-width="1.4682"/>
</g>
<g opacity="0.5">
<path d="M206.266 110.136C206.266 163.307 163.386 206.404 110.5 206.404C57.6135 206.404 14.7341 163.307 14.7341 110.136C14.7341 56.9647 57.6135 13.8674 110.5 13.8674C163.386 13.8674 206.266 56.9647 206.266 110.136Z" stroke="url(#paint2_linear_1:753)" stroke-width="1.4682"/>
<path d="M206.266 110.136C206.266 163.307 163.386 206.404 110.5 206.404C57.6135 206.404 14.7341 163.307 14.7341 110.136C14.7341 56.9647 57.6135 13.8674 110.5 13.8674C163.386 13.8674 206.266 56.9647 206.266 110.136Z" stroke="#F67939" stroke-width="1.4682"/>
<path d="M206.266 110.136C206.266 163.307 163.386 206.404 110.5 206.404C57.6135 206.404 14.7341 163.307 14.7341 110.136C14.7341 56.9647 57.6135 13.8674 110.5 13.8674C163.386 13.8674 206.266 56.9647 206.266 110.136Z" stroke="url(#paint3_linear_1:753)" stroke-opacity="0.35" stroke-width="1.4682"/>
</g>
<circle cx="110.5" cy="109.634" r="82.5" fill="#6563CC"/>
<g clip-path="url(#clip0_1:753)">
<path d="M150.313 102.091C149.568 100.9 148.864 99.7754 148.601 98.7904C148.317 97.729 148.362 96.3565 148.409 94.9033C148.485 92.5683 148.571 89.9216 147.243 87.6274C145.897 85.3011 143.544 84.0494 141.467 82.9451C140.2 82.2712 139.003 81.6346 138.251 80.8823C137.499 80.1301 136.862 78.9331 136.188 77.6659C135.084 75.5892 133.832 73.2357 131.506 71.8899C129.211 70.5625 126.565 70.6478 124.23 70.7243C122.776 70.7712 121.404 70.8159 120.343 70.5323C119.357 70.2689 118.232 69.565 117.041 68.8198C115.029 67.5608 112.748 66.1333 110 66.1333C107.252 66.1333 104.971 67.5608 102.958 68.82C101.767 69.5652 100.642 70.2693 99.6571 70.5325C98.5957 70.8161 97.2234 70.7714 95.77 70.7245C93.4352 70.6483 90.7885 70.5626 88.4942 71.8901C86.1678 73.2359 84.9163 75.5896 83.8118 77.6661C83.1379 78.9332 82.5012 80.1303 81.749 80.8825C80.9968 81.6345 79.7999 82.2712 78.5326 82.9451C76.4561 84.0494 74.1026 85.3011 72.7566 87.6275C71.4292 89.9218 71.5152 92.5685 71.5908 94.9035C71.6381 96.3567 71.6826 97.7293 71.3989 98.7908C71.1354 99.7759 70.4317 100.901 69.6863 102.092C68.4275 104.104 67 106.386 67 109.133C67 111.881 68.4275 114.162 69.6868 116.175C70.432 117.366 71.136 118.491 71.3994 119.476C71.6829 120.538 71.6384 121.91 71.5912 123.363C71.5153 125.698 71.4293 128.345 72.7568 130.639C74.1026 132.965 76.4563 134.217 78.5326 135.321C79.7999 135.995 80.9968 136.632 81.7492 137.384C82.5013 138.136 83.1379 139.334 83.812 140.601C84.9163 142.677 86.168 145.031 88.4944 146.377C90.7886 147.704 93.4348 147.619 95.7704 147.542C97.2236 147.495 98.5962 147.451 99.6575 147.734C100.643 147.998 101.768 148.702 102.959 149.447C104.971 150.706 107.252 152.133 110 152.133C112.748 152.133 115.029 150.706 117.042 149.447C118.233 148.701 119.358 147.997 120.343 147.734C121.404 147.45 122.777 147.495 124.23 147.542C126.565 147.619 129.212 147.704 131.506 146.377C133.832 145.031 135.084 142.677 136.188 140.6C136.862 139.333 137.499 138.136 138.251 137.384C139.003 136.632 140.2 135.995 141.467 135.321C143.544 134.217 145.897 132.965 147.243 130.639C148.571 128.345 148.485 125.698 148.409 123.363C148.362 121.91 148.317 120.537 148.601 119.476C148.865 118.491 149.568 117.366 150.314 116.175C151.573 114.162 153 111.881 153 109.133C153 106.386 151.573 104.104 150.313 102.091ZM146.008 113.481C145.097 114.937 144.154 116.443 143.694 118.165C143.217 119.952 143.276 121.77 143.333 123.528C143.392 125.344 143.447 127.059 142.847 128.096C142.229 129.164 140.7 129.977 139.082 130.837C137.541 131.657 135.948 132.504 134.659 133.793C133.371 135.082 132.523 136.675 131.704 138.216C130.843 139.834 130.03 141.363 128.962 141.981C127.925 142.581 126.21 142.525 124.395 142.466C122.636 142.409 120.818 142.35 119.031 142.828C117.31 143.288 115.804 144.23 114.348 145.141C112.775 146.125 111.29 147.055 110 147.055C108.71 147.055 107.225 146.125 105.652 145.141C104.196 144.23 102.69 143.288 100.969 142.828C99.7701 142.507 98.5574 142.428 97.3582 142.428C96.7695 142.428 96.1841 142.447 95.6053 142.466C93.7897 142.525 92.0749 142.581 91.0377 141.981C89.9694 141.363 89.1567 139.834 88.296 138.216C87.4765 136.675 86.6292 135.082 85.3405 133.793C84.0519 132.504 82.4585 131.657 80.9176 130.837C79.2994 129.977 77.7708 129.164 77.1529 128.096C76.5528 127.059 76.6085 125.344 76.6674 123.528C76.7244 121.77 76.7835 119.952 76.3059 118.165C75.8458 116.443 74.9035 114.938 73.9924 113.481C73.0081 111.909 72.0787 110.423 72.0787 109.133C72.0787 107.843 73.0081 106.358 73.9921 104.786C74.9034 103.329 75.8456 101.823 76.3058 100.102C76.7833 98.3149 76.7244 96.4969 76.6674 94.7385C76.6085 92.9228 76.5528 91.2081 77.1529 90.1708C77.771 89.1026 79.2995 88.2898 80.9178 87.4291C82.4587 86.6096 84.0519 85.7623 85.3405 84.4736C86.6292 83.185 87.4766 81.5918 88.296 80.0509C89.1567 78.4325 89.9696 76.904 91.0377 76.286C92.0751 75.6859 93.79 75.7418 95.6053 75.8005C97.3636 75.8579 99.1818 75.917 100.969 75.4391C102.69 74.9789 104.196 74.0367 105.652 73.1254C107.225 72.1414 108.71 71.212 110 71.212C111.29 71.212 112.775 72.1414 114.348 73.1254C115.804 74.0367 117.31 74.9789 119.031 75.4391C120.818 75.9166 122.637 75.8577 124.395 75.8005C126.21 75.7419 127.925 75.6859 128.962 76.286C130.031 76.904 130.843 78.4327 131.704 80.0509C132.524 81.5918 133.371 83.185 134.659 84.4736C135.948 85.7623 137.541 86.6098 139.082 87.4293C140.701 88.29 142.229 89.1029 142.847 90.1708C143.447 91.2082 143.392 92.923 143.333 94.7385C143.276 96.4967 143.216 98.3149 143.694 100.102C144.154 101.823 145.096 103.329 146.008 104.785C146.992 106.358 147.921 107.843 147.921 109.133C147.921 110.423 146.992 111.908 146.008 113.481Z" fill="#FEFEFE"/>
<path d="M105.278 114.363L98.2521 107.338L94.6611 110.929L105.205 121.473L125.302 102.181L121.785 98.5167L105.278 114.363Z" fill="#FEFEFE"/>
<path d="M110 79.5073C93.6642 79.5073 80.374 92.7975 80.374 109.133C80.374 125.469 93.6642 138.759 110 138.759C126.336 138.759 139.626 125.469 139.626 109.133C139.626 92.7975 126.336 79.5073 110 79.5073ZM110 133.681C96.4646 133.681 85.4527 122.669 85.4527 109.133C85.4527 95.5979 96.4646 84.586 110 84.586C123.535 84.586 134.547 95.5979 134.547 109.133C134.547 122.669 123.535 133.681 110 133.681Z" fill="#FEFEFE"/>
</g>
<rect width="15.9924" height="15.9924" rx="4.14034" transform="matrix(-0.965925 -0.258822 -0.258816 0.965926 229 117.925)" fill="#F3A100"/>
<rect width="7.22264" height="7.22264" rx="2.07017" transform="matrix(0.939694 -0.342017 -0.342023 -0.939692 43.4623 25.0298)" fill="#F75E1C"/>
<rect width="11.363" height="11.363" rx="2.07017" transform="matrix(0.939691 -0.342026 -0.342014 -0.939695 20.7371 184.26)" fill="#2089E1"/>
<defs>
<linearGradient id="paint0_linear_1:753" x1="0" y1="110.133" x2="199.714" y2="131.492" gradientUnits="userSpaceOnUse">
<stop stop-color="#2C27FF"/>
<stop offset="1" stop-color="#00B6E9"/>
</linearGradient>
<linearGradient id="paint1_linear_1:753" x1="173.837" y1="142.597" x2="64.6104" y2="61.3678" gradientUnits="userSpaceOnUse">
<stop stop-color="#FF2969"/>
<stop offset="1" stop-color="#F77A1C"/>
</linearGradient>
<linearGradient id="paint2_linear_1:753" x1="14" y1="110.136" x2="189.224" y2="128.779" gradientUnits="userSpaceOnUse">
<stop stop-color="#2C27FF"/>
<stop offset="1" stop-color="#00B6E9"/>
</linearGradient>
<linearGradient id="paint3_linear_1:753" x1="166.502" y1="138.763" x2="70.327" y2="67.6109" gradientUnits="userSpaceOnUse">
<stop stop-color="#FF2969"/>
<stop offset="1" stop-color="#F77A1C"/>
</linearGradient>
<clipPath id="clip0_1:753">
<rect width="86" height="86" fill="white" transform="translate(67 66.1333)"/>
</clipPath>
</defs>
</svg>
