<svg xmlns="http://www.w3.org/2000/svg" viewBox="0 0 700 700"><defs><style>.a{fill:#a8e8ef;}.b{fill:#aff5f9;}.c{fill:#62d5e8;}.d{fill:#cfffff;}</style></defs><rect class="a" x="-10.08" y="-10" width="720" height="720"/><path class="b" d="M-10.08,456.4s288.32-235.88,720.16-14.76V710H-10.08Z"/><path class="c" d="M30.89,320.6c-12.53,14.31-31,68.21-19.76,72.11s22.59,0,22.59,0S2,442.3,16.78,448s25.41,0,25.41,0S3.52,518.11,25,524.42s40.25-17,40.25-17l6.43,29.32s26.82,7.22,28.42-6.19a41.8,41.8,0,0,0-3.71-23.13s38.47,25,43.32,6.51S100.31,448,100.31,448s19.55,16.41,25.4-3.63-41.17-53.88-41.17-53.88,16.91-4.13,23-17.11S59.13,288.34,30.89,320.6Z"/><path class="c" d="M647.71,276.27c14.65,13.82,39.63,68.76,28.12,74S652,352.57,652,352.57s38.49,49.05,23.45,56.61-26.79,2.56-26.79,2.56,47.84,69.94,25.87,78.76-44.14-13.9-44.14-13.9l-3.82,31.56S599.05,518.48,596,504.5a44.26,44.26,0,0,1,1.58-24.75s-38,30.19-45,11.24,34.85-73.37,34.85-73.37-18.95,19.27-27.15-1.26,38-61,38-61-18.24-2.64-26-15.7S614.69,245.13,647.71,276.27Z"/><circle class="d" cx="56.64" cy="84.33" r="12.86"/><circle class="d" cx="583.91" cy="33.41" r="12.86"/><circle class="d" cx="632.46" cy="193.38" r="12.86"/><circle class="d" cx="658.17" cy="559.7" r="10.53"/><circle class="d" cx="492.27" cy="31.09" r="10.53"/><circle class="d" cx="148.39" cy="20.56" r="10.53"/><circle class="d" cx="30.92" cy="198.28" r="12.86"/></svg>