<svg xmlns="http://www.w3.org/2000/svg" viewBox="0 0 700 700"><defs><style>.a{fill:#3131db;}.b{fill:#7f7fef;}.c{fill:#5757c9;}.d{fill:#a9a9f7;}.e{fill:#5858f4;}.f{fill:#fce7be;}</style></defs><rect class="a" x="-10" y="-10" width="720" height="720"/><path class="b" d="M710,391.46V710H-10V391.46a578.76,578.76,0,0,1,720,0Z"/><ellipse class="c" cx="87.86" cy="443.91" rx="65.65" ry="44.47" transform="translate(-210.18 103.4) rotate(-30)"/><ellipse class="c" cx="546.93" cy="466.37" rx="88.97" ry="132.06" transform="translate(-41.31 879.42) rotate(-75.53)"/><path class="d" d="M570,339l26-147.83,99.67,33.94L683.89,290.5l-92.71-17.38L577.53,339S577.06,341.33,570,339Z"/><path class="e" d="M710-10V148.12a192.28,192.28,0,0,1-23.52,1.43c-95.13,0-174.16-68.92-189.87-159.55Z"/><path class="d" d="M710-10V115.56L647.57,83.91s-16.15-3.18-26.74-4.31-20.12-2-24.85-14.75S594.36,45.79,579.53,31s-43.41-11.65-52.22-41Z"/><path class="f" d="M665.86,251c.82-3.61,0-5.31-1.21-8.72,2.49-1.95,6.1-7.23,4.17-9.27s-6.69.16-9,1.35A26.83,26.83,0,0,0,656,231c-5.6-4.79-13.72-8-22.92-5.23a26.89,26.89,0,0,0-5,1.43c-1.56-2.07-5-6.07-7.52-5.11s-1.65,7.32-.26,10.17c-2.55,2.55-3.84,3.77-4.66,7.38-2.67,11.73,10.6,28.2,19.35,30.1C644.58,271.76,663.18,262.76,665.86,251Z"/></svg>