<svg xmlns="http://www.w3.org/2000/svg" viewBox="0 0 700 700"><defs><style>.a{fill:#f7410f;}.b{fill:#5b2015;}</style></defs><path class="a" d="M439,339.62c4.62,6.47-1.83,22.13-29.69,13.51s-52.2,10.61-55.21,0c-1.46,11-28.29-4.62-54.64,7.87s-35-2.09-31.3-9.15c0,0-15.05,6.05-2.35,23s44.71,22.44,61.42,15.15c13.55-5.92,26.09-15.11,27.48-28.31,3.25,12.87,17,20.18,31.23,24.11,17.58,4.85,48.47-5.17,58.64-23.72S439,339.62,439,339.62Z"/><path class="b" d="M309.54,399.52c-17.9,0-38.38-7-48.82-20.89-5.59-7.44-7.52-14.44-5.75-20.81,2.32-8.3,10-11.59,10.83-11.94a6.41,6.41,0,0,1,8.07,8.89,2.67,2.67,0,0,0,.9,2.61c2.51,2.61,9.78,3.59,22-2.19,15.78-7.49,31.74-5.92,42.3-4.88a65.69,65.69,0,0,0,9.1.52,6.4,6.4,0,0,1,11.59-.83,65.31,65.31,0,0,0,8.93-1.81c10.3-2.52,25.87-6.35,42.57-1.18,12.89,4,19.94,2,22.06-.95a2.69,2.69,0,0,0,.52-2.72,6.4,6.4,0,0,1,6.73-9.94c.9.22,8.94,2.39,12.41,10.28,2.66,6.05,1.74,13.25-2.74,21.42-11.87,21.65-45.78,32.37-66,26.82-12.68-3.5-22.28-8.76-28.47-15.52-5.17,7.57-13.93,14.14-26,19.41A51.68,51.68,0,0,1,309.54,399.52ZM270,369.6c.3.44.62.89,1,1.34,10.66,14.19,39.31,19.43,53.74,13.13,9.31-4.06,20.47-10.8,23.16-20.42a80.3,80.3,0,0,1-10.06-.6c-10.24-1-23-2.26-35.57,3.71C285.78,374.56,275.64,372.63,270,369.6Zm91.84-7c4,9.14,16,14.22,25.83,16.92,15.18,4.19,42.8-5.07,51.33-20.63.27-.5.53-1,.76-1.47-5.15,3.81-14.91,7.16-32.31,1.77-13.3-4.12-25.74-1.06-35.73,1.39A80.47,80.47,0,0,1,361.84,362.65Z"/></svg>