<svg xmlns="http://www.w3.org/2000/svg" viewBox="0 0 700 700"><defs><style>.a{fill:#5b2015;}</style></defs><path class="a" d="M473,369.18l-5.57-1.7c-25.89,50.72-81.86-37.24-114.14-17.06-37.68-16.94-75.71,74.87-104.34,30.42l-5.38,2.25s-18.15,39.52,41,38.42c55.43-1,58-37.36,70.6-55.14C369,384.61,386.09,416,436,411.51,489.42,406.73,473,369.18,473,369.18Z"/><path class="a" d="M279.12,427.89c-19.91-.5-33.38-5.94-40.09-16.2-9.09-13.9-1.61-30.57-1.29-31.27a6.39,6.39,0,0,1,3.34-3.23l5.37-2.25a6.4,6.4,0,0,1,7.86,2.44c3.65,5.66,7.32,8.68,11.24,9.24,8.73,1.24,20.77-9.23,32.41-19.36,16.46-14.32,35-30.46,54.86-23.87,16.91-7.91,36.45,4.53,55.39,16.59,15,9.58,30.6,19.49,41.31,16.57,4.75-1.29,8.74-5.21,12.19-12a6.4,6.4,0,0,1,7.57-3.22l5.57,1.71a6.38,6.38,0,0,1,4,3.55c.3.68,7.22,16.9-1.4,31.47-6.71,11.32-20.46,18-40.88,19.81-46.7,4.17-67.29-21.35-80.75-39.81-.72,1.44-1.44,2.95-2.18,4.47-9,18.77-21.4,44.47-68.93,45.36C282.79,428,280.93,427.94,279.12,427.89ZM248,390.19c-.89,3.94-1.36,9.79,1.79,14.55,4.71,7.12,16.71,10.71,34.69,10.37,39.65-.74,49.21-20.59,57.64-38.11A99.56,99.56,0,0,1,350,362.67a6.4,6.4,0,0,1,10.33-.16c1.35,1.79,2.71,3.66,4.14,5.64,13.12,18.13,29.46,40.7,71,37,15.8-1.41,26.5-6.08,30.95-13.49,2.84-4.74,2.87-10.07,2.27-14-4.4,5.84-9.68,9.63-15.76,11.28a28.21,28.21,0,0,1-8.22,1c-13.93-.35-28.84-9.85-43.34-19.08-16.7-10.63-34-21.63-44.67-14.93a6.4,6.4,0,0,1-6,.41c-13.54-6.09-29.17,7.51-44.28,20.66-14.45,12.57-28.09,24.44-42.61,22.38C258,398.47,252.68,395.42,248,390.19Z"/><path class="a" d="M259.19,411.74a30.06,30.06,0,0,0,17.07-.19c5.66-1.74,11.09-5.07,16.17-9.14a173.43,173.43,0,0,0,14.74-13.82c2.45-2.48,4.93-5,7.7-7.46a44.61,44.61,0,0,1,4.54-3.59,20,20,0,0,1,6-2.92,4.35,4.35,0,0,1,2.51,8.32l-.21.07a12.44,12.44,0,0,0-3.15,1.83,37.71,37.71,0,0,0-3.47,3.05c-2.3,2.26-4.58,4.8-6.88,7.37a183,183,0,0,1-14.88,15.37A61.48,61.48,0,0,1,280,422.71a41,41,0,0,1-11.83,2.45,44.93,44.93,0,0,1-12.1-1,6.4,6.4,0,0,1,2.71-12.52l.29.07Z"/><path class="a" d="M454.56,414.46A36.07,36.07,0,0,1,429,415.55a50.89,50.89,0,0,1-11.13-5.19,84.07,84.07,0,0,1-9.45-6.87c-5.89-4.88-11.11-10.21-16.22-15.32-2.56-2.54-5.1-5.05-7.66-7.26a36.77,36.77,0,0,0-3.82-2.88,9.63,9.63,0,0,0-3.19-1.43l-.18,0a4.35,4.35,0,0,1,1-8.64,17,17,0,0,1,7,2.39,42.9,42.9,0,0,1,5.08,3.44c3.07,2.4,5.83,4.9,8.55,7.36,5.42,4.94,10.66,9.78,16.19,13.94a73.88,73.88,0,0,0,8.47,5.57,39.72,39.72,0,0,0,8.79,3.64,25.24,25.24,0,0,0,8.74.82,24.74,24.74,0,0,0,8.29-2.32l.06,0a6.4,6.4,0,0,1,5.42,11.6Z"/></svg>