<svg xmlns="http://www.w3.org/2000/svg" viewBox="0 0 700 700"><defs><style>.a{fill:#5b2015;}.b{fill:#f9cbbd;opacity:0.5;isolation:isolate;}</style></defs><path class="a" d="M542,247.24c-11.62-5.54-38-10.17-39.13-10.36h-.06l-16.25-2.69C483.23,233.6,422.75,223,385,229a51.85,51.85,0,0,1-7.86.72c-20.46.2-42.43,2.69-54.74,4.33a92.17,92.17,0,0,1-16.1.75c-38.18-1.5-94.19,13.59-97.33,14.45L193,253.34h-.14l-.34.11-.3.11-.16.06L156.2,269.05a6.4,6.4,0,0,0,4.49,12l.51-.22,29-12.42,1.22,5a6.37,6.37,0,0,0,5,4.75l16.11,3.15,10.35,29.57a6.41,6.41,0,0,0,6,4.28h.69L315.15,306a6.41,6.41,0,0,0,5.72-6.47L320,247.35c10.42-1.46,34-4.43,55.65-4.76l3.8,51.68a6.42,6.42,0,0,0,6.32,5.92l86.07,1.5H472a6.4,6.4,0,0,0,6.2-4.84l7.69-30.41,15.76-4.57a6.41,6.41,0,0,0,4.55-5.18l.91-6c9.24,1.85,23.15,5.05,29.54,8.16a6.28,6.28,0,0,0,2.79.65,6.38,6.38,0,0,0,5.9-3.9A6.55,6.55,0,0,0,542,247.24ZM233.32,301.85l-9.9-28.29a6.4,6.4,0,0,0-4.82-4.16l-15.73-3.07-.55-2.14,9.86-2.53h.09c.62-.17,58.73-15.91,95-13.92l.73,46.15Zm260.83-51.16-15.36,4.5a6.43,6.43,0,0,0-4.47,4.53L467,288.78l-75.15-1.31-3.39-46c35.93-5.2,95.24,5.28,95.87,5.39h.1l10,1.63Z"/><path class="b" d="M494.49,248.48l-.34,2.21-15.36,4.5a6.43,6.43,0,0,0-4.47,4.53L467,288.78l-75.15-1.31-3.39-46c35.93-5.2,95.24,5.28,95.87,5.39h.1Z"/><path class="b" d="M308,293.84l-74.7,8-9.9-28.29a6.4,6.4,0,0,0-4.82-4.16l-15.73-3.07-.55-2.14,9.86-2.53h.09c.62-.17,58.73-15.91,95-13.92Z"/></svg>