<svg xmlns="http://www.w3.org/2000/svg" viewBox="0 0 700 700"><defs><style>.a{fill:#fce7be;}.b{fill:#f46606;opacity:0.7;isolation:isolate;}</style></defs><path class="a" d="M543.34,255.23l-44-17.44-.24-.09H499a271.59,271.59,0,0,0-49.32-10.53c-38.72-4.17-55.49,6.11-62.56,17.51-34.75-11.91-61.59-2.51-73.24,3.18-7.6-11.55-25.29-21.69-66.3-11.69a269.43,269.43,0,0,0-47.48,17h0a5.24,5.24,0,0,0-.61.34l-44.12,27.72a6.41,6.41,0,0,0,6.8,10.85L184,278.37a29.84,29.84,0,0,1,18.36-4.47h0c4,.31,8.71,6.76,13.67,13.58,9.67,13.32,22.92,31.57,49.65,31.57,24.23,0,40.85-7.16,49.4-21.28,7.38-12.18,6.73-27.29,3.8-38.14,9.09-4.61,32.57-13.51,63.73-3-2.17,11.3-1.51,28.31,8.32,40.51,8.29,10.29,21.12,15.47,38.22,15.47a102.77,102.77,0,0,0,13.58-1c26.5-3.56,37.19-23.41,45-37.91,4-7.42,7.78-14.43,11.74-15.27h.07a34.12,34.12,0,0,1,20.19,1.19l18.88,7.55a6.34,6.34,0,0,0,2.35.46,6.41,6.41,0,0,0,2.4-12.4ZM304.13,291.17c-6.07,10-19,15.11-38.45,15.11-20.21,0-30.35-14-39.29-26.28-5.2-7.16-10.17-14-16.72-17.12,25.37-11.52,81.67-30.71,94.45-6.35C307.17,262.35,311.39,279.17,304.13,291.17Zm172.33-23.49c-7.22,13.4-15.41,28.6-35.43,31.29-19.27,2.59-32.77-.72-40.13-9.85-8.79-10.92-6.84-28.13-4.6-34.3,4.35-12,19.2-15.94,36.55-15.94,20.11,0,43.58,5.32,57.9,9.61C484.67,252.45,480.66,259.9,476.46,267.68Z"/><path class="b" d="M490.75,248.49c-6.08,4-10.09,11.41-14.29,19.19-7.22,13.4-15.41,28.6-35.43,31.29-19.27,2.59-32.77-.72-40.13-9.85-8.79-10.92-6.84-28.13-4.6-34.3,4.35-12,19.2-15.94,36.55-15.94C453,238.88,476.43,244.17,490.75,248.49Z"/><path class="b" d="M304.13,291.17c-6.07,10-19,15.11-38.45,15.11-20.21,0-30.35-14-39.29-26.28-5.2-7.16-10.17-14-16.72-17.12,25.37-11.52,81.67-30.71,94.45-6.35C307.17,262.35,311.39,279.17,304.13,291.17Z"/></svg>