<svg xmlns="http://www.w3.org/2000/svg" viewBox="0 0 700 700"><defs><style>.a{fill:#5b2015;}</style></defs><rect class="a" x="138.5" y="140.89" width="84.83" height="110.56" rx="42.41" transform="translate(-25.55 27.1) rotate(-8)"/><rect class="a" x="465.57" y="120.77" width="84.83" height="110.56" rx="42.41" transform="translate(-19.56 72.43) rotate(-8)"/><path class="a" d="M170.42,156.14a6.4,6.4,0,0,1-6.27-5.15c-6.38-32,6.8-61.66,38.13-85.71,28.93-22.22,72.11-38,118.47-43.26,48-5.46,93.05.68,126.75,17.29,40,19.72,61.17,52.63,61.17,95.16a6.4,6.4,0,0,1-12.8,0c0-47.15-29.38-71.53-54-83.68C378.2,19.42,267.73,31.16,210.07,75.43c-19,14.56-40.14,39.06-33.36,73.06a6.4,6.4,0,0,1-5,7.53A6.72,6.72,0,0,1,170.42,156.14Z"/></svg>