<svg xmlns="http://www.w3.org/2000/svg" viewBox="0 0 700 700"><defs><style>.a{fill:#e83834;}.b{fill:#fc5959;}.c{fill:#c12525;}.d{fill:#5b2015;}</style></defs><path class="a" d="M287,79.45c-21.86,17-43.54,45.37-42.87,90.68,0,0-11.25,4.07-9.4,18,2.43,18.43,23.56,33.67,101.79,29.85,84.63-4.13,116.88-28.58,117.89-42.15,1.41-19-17.3-24.17-17.3-24.17s-10.94-39.12-40-67.14C366.93,55.44,320,53.7,287,79.45Z"/><path class="b" d="M437.06,151.68s-10.94-39.12-40-67.14C366.93,55.44,320,53.7,287,79.45c-17.41,13.56-34.69,34.31-40.68,65.08,7.88-22.91,22.3-39.2,36.8-50.5,33.06-25.75,80-24,110.13,5.09,29,28,40,67.13,40,67.13s14.74,4.08,17.06,18.32c2.6-3.16,3.92-6.14,4.12-8.72C455.77,156.84,437.06,151.68,437.06,151.68Z"/><path class="c" d="M336.47,203.41c-71.32,3.48-95.18-8.88-100.68-25a18.4,18.4,0,0,0-1.12,9.79c2.44,18.43,23.57,33.67,101.8,29.85,84.63-4.13,116.88-28.58,117.89-42.15a23,23,0,0,0-1.36-10C446.08,179.69,412.31,199.7,336.47,203.41Z"/><path class="d" d="M313.71,225c-54.88,0-82.16-11.63-85.38-36-1.54-11.7,4.12-19,9.34-22.64.59-47.14,24.82-76,45.35-91.95l3.93,5-3.93-5A91.93,91.93,0,0,1,343.39,55a89.18,89.18,0,0,1,58.14,24.9c25.39,24.5,37.37,56.6,40.71,66.81,8.38,3.61,19.74,12.86,18.5,29.58-.78,10.57-12.22,21.5-31.37,30-22.47,10-54.48,16.22-92.58,18.08Q324.53,225,313.71,225ZM246.3,176.13c-1.2.5-6.34,3.14-5.28,11.18,2.52,19.08,34.53,27.26,95.14,24.3,83.56-4.08,111.2-28,111.81-36.23,1-13.19-11.25-17.14-12.65-17.54a6.47,6.47,0,0,1-4.42-4.44c-.11-.37-10.89-37.84-38.26-64.25S321.47,60.68,290.88,84.5C263.55,105.79,250,134.57,250.48,170A6.14,6.14,0,0,1,246.3,176.13Z"/><path class="d" d="M319.57,184.2c-3.2,0-6.29,0-9.28-.12-38.42-1-66.49-7.45-67.67-7.72a6.4,6.4,0,0,1,2.91-12.47c1.24.29,111.3,25.15,188.42-17.81a6.4,6.4,0,0,1,6.23,11.19C401,179.09,354.51,184.2,319.57,184.2Z"/><path class="d" d="M286.7,223.83a6.39,6.39,0,0,1-4.91-2.3c-16.06-19.23-5.37-46-4.9-47.17a6.4,6.4,0,0,1,11.85,4.83c-.11.28-8.19,20.89,2.87,34.13a6.41,6.41,0,0,1-4.91,10.51Z"/><path class="d" d="M333.3,223.83a6.39,6.39,0,0,1-5.28-2.78c-15.81-23-3.8-45.54-3.28-46.48A6.4,6.4,0,0,1,336,180.69a33,33,0,0,0,2.58,33.11,6.41,6.41,0,0,1-5.27,10Z"/><path class="d" d="M380.63,219.82a6.41,6.41,0,0,1-5.5-9.67c9.06-15.24-3.29-33.63-3.42-33.81a6.4,6.4,0,0,1,10.53-7.28c.71,1,17.19,25.26,3.9,47.62A6.4,6.4,0,0,1,380.63,219.82Z"/><path class="d" d="M418.22,210.3a6.28,6.28,0,0,1-2.87-.69A6.4,6.4,0,0,1,412.5,201c7.36-14.67-6.67-33.14-6.82-33.33a6.4,6.4,0,1,1,10.06-7.92c.79,1,19.3,24.89,8.2,47A6.4,6.4,0,0,1,418.22,210.3Z"/><circle class="a" cx="331.77" cy="49.91" r="21.41"/><path class="d" d="M331.77,77.72a27.81,27.81,0,1,1,27.81-27.81A27.83,27.83,0,0,1,331.77,77.72Zm0-42.82a15,15,0,1,0,15,15A15,15,0,0,0,331.77,34.9Z"/></svg>