<svg xmlns="http://www.w3.org/2000/svg" viewBox="0 0 700 700"><defs><style>.a{fill:#f78e39;}.b{fill:#f4a83b;}.c{fill:#e27423;}.d{fill:#5b2015;}.e{fill:#f9b938;}.f{fill:#f7cb41;}.g{fill:#f4a53b;}.h{fill:#fce7be;}</style></defs><path class="a" d="M480.3,469.5c95.82-3.34,71.14-82.56,71.14-82.56s49.48-3.46,64.62-61.88-53.65-107-53.65-107S596,155.2,559.06,106c-32-42.69-112.71-2.37-112.71-2.37S447.76,61.82,404,57.86s-64.28,58.89-64.28,58.89-25.41-61-68.71-53.66-38.61,49-38.61,49S162,92.82,128,134s-8,95.81-8,95.81-53.43,64-33.76,121.07,63.68,51.88,63.68,51.88-26.11,81.6,77.4,76.72c0,0,43.76,99.9,127.35,27.68C473.86,567.71,480.3,469.5,480.3,469.5Z"/><path class="b" d="M262.55,78.62c43.3-7.38,68.7,53.66,68.7,53.66a128.42,128.42,0,0,1,7.62-17.45c-4.75-10.29-29.15-58.34-67.85-51.74-23.43,4-32.8,18-36.48,30C240.31,86.48,249.12,80.91,262.55,78.62Z"/><path class="b" d="M119.52,149.49c34-41.14,104.42-21.91,104.42-21.91a51.51,51.51,0,0,1,1.59-17.06c-18.54-3.59-70-9.89-97.54,23.44a74.65,74.65,0,0,0-11.83,19.92Q117.73,151.66,119.52,149.49Z"/><path class="b" d="M562.41,218S596,155.2,559.06,106c-32-42.69-112.71-2.37-112.71-2.37S447.76,61.82,404,57.86c-31.71-2.87-51.22,29.35-59.56,47.3,10.5-16.45,27.39-33.91,51.09-31.77,43.75,4,42.33,45.78,42.33,45.78s80.7-40.31,112.72,2.38c36.89,49.18,3.35,112,3.35,112s68.78,48.6,53.65,107a105,105,0,0,1-4.92,14.58,93.89,93.89,0,0,0,13.39-30.11C631.19,266.63,562.41,218,562.41,218Z"/><path class="c" d="M554.79,252.57c-1.37-26.12-9.85-37.18-23.77-56.69a108.44,108.44,0,0,1-12,22.74c15.73,22.31,25.36,33,26.82,61a115.86,115.86,0,0,1-2.92,31.66C551.31,291.82,555.8,271.9,554.79,252.57Z"/><path class="c" d="M539.18,115.41c-17.67-10.48-48.41,15-62.7,28.42a201.49,201.49,0,0,0-35-17.08c-10.24,30.91-63.32,28.08-89.8,9.81,0,0-52.92,40.81-88-.53a201,201,0,0,0-33.09,20.7c-15.63-11.85-48.86-34-65.34-21.7-6.51,4.86-7.59,14.29-5.55,25.08,17.29-7.51,47.33,12.56,61.94,23.65a201.86,201.86,0,0,1,33.09-20.71c35.09,41.34,88,.54,88,.54,26.47,18.27,79.56,21.1,89.79-9.82a201.86,201.86,0,0,1,34.95,17.08c14.3-13.42,45-38.89,62.71-28.41,8.76,5.2,9.78,18.45,6.92,33C547.24,153.52,553.42,123.86,539.18,115.41Z"/><path class="c" d="M489.24,442.47a77.56,77.56,0,0,1-7.86,27c56.92-2.34,70.7-31.76,72.64-54.82C544.38,429.15,525.39,441.21,489.24,442.47Z"/><path class="c" d="M560.38,359.91a80.2,80.2,0,0,1,2.79,24.51c15.6-4.88,42.43-19,52.88-59.36a66.82,66.82,0,0,0,1.38-6.75C597.7,357.28,560.38,359.91,560.38,359.91Z"/><path class="c" d="M128.89,202.74s-12.84-27.12-8.58-57.53c-15.83,28.36-9,60-3.93,75.25A180.94,180.94,0,0,1,128.89,202.74Z"/><path class="c" d="M363.56,480.09c-83.6,72.22-127.35-27.68-127.35-27.68-103.52,4.88-77.4-76.72-77.4-76.72s-44,5.18-63.68-51.88c-5.75-16.66-5.24-33.91-1.66-50-9.76,22.41-16.44,50.46-7.29,77,19.68,57.05,63.68,51.88,63.68,51.88s-26.12,81.6,77.4,76.72c0,0,43.76,99.9,127.35,27.68C462.45,561.91,478,486.85,480,472,467.12,494.88,436.36,517.09,363.56,480.09Z"/><path class="d" d="M296.58,539.75a63.28,63.28,0,0,1-14-1.57c-33.62-7.62-53.25-40.6-59.21-52.19-33.94.87-57.9-7.53-71.29-25-13.71-17.89-12.3-40.2-10.2-52a63.27,63.27,0,0,1-19-4.93c-13.47-5.84-31.8-19.45-42.73-51.12-18.33-53.17,21.74-110.26,32.44-124.17a126.47,126.47,0,0,1-7.7-30.71c-3.14-26.39,3.15-50,18.19-68.16,29.51-35.73,82.69-29.71,103-25.82a58.28,58.28,0,0,1,3.45-16c4.45-11.9,15.09-27,40.46-31.31,34.79-5.93,58.45,25.83,69.18,44.59,9.23-19.54,30.33-53.07,65.47-49.88C430.22,53.8,442,68,447.38,79.53a57.89,57.89,0,0,1,4.52,14.59c22.47-9.44,83.56-30.24,112.28,8.06,16.17,21.55,21.94,49,16.7,79.38a149.83,149.83,0,0,1-10.45,34.53,185.41,185.41,0,0,1,29.51,29.59c21.31,27.08,29,55.09,22.31,81-8.38,32.34-26.92,48.74-41,56.8a80.55,80.55,0,0,1-22,8.65c2.13,11.55,4,35-9.78,54.52-12.24,17.25-33.58,27-63.48,29-1.94,11.32-8.74,36.52-31.79,49.64-23.69,13.49-56.86,9.94-98.65-10.53C335.28,531.37,315.52,539.75,296.58,539.75ZM227.26,473a6.42,6.42,0,0,1,5.87,3.83c.18.41,18.52,41.22,52.3,48.83,19.94,4.49,41.81-3.39,65-23.42a6.41,6.41,0,0,1,7.08-.87c39.45,20.05,69.81,24.35,90.24,12.78,23.68-13.42,26.14-44.81,26.17-45.13a6.41,6.41,0,0,1,6.16-6c28.51-1,48.31-9,58.86-23.81,15.12-21.21,6.48-50.17,6.39-50.46a6.41,6.41,0,0,1,5.67-8.28c1.81-.14,45.12-4.09,58.86-57.1,13.87-53.52-50.49-99.73-51.14-100.19a6.39,6.39,0,0,1-2-8.24c.31-.59,31.12-59.9-2.83-105.16C525.51,72,450,109,449.2,109.37a6.4,6.4,0,0,1-9.25-5.94c0-1.44.52-35.84-36.52-39.19-38.11-3.46-57.43,53.92-57.62,54.5a6.42,6.42,0,0,1-5.84,4.4,6.35,6.35,0,0,1-6.15-3.93c-.24-.56-24-56.25-61.73-49.81-36.66,6.24-33.47,40.5-33.32,42a6.42,6.42,0,0,1-8.05,6.87c-.66-.18-66.88-17.61-97.79,19.81s-7.44,88.47-7.2,89a6.41,6.41,0,0,1-.87,6.85c-.51.61-50.87,62-32.62,114.88,17.64,51.17,55.32,47.78,56.91,47.61a6.42,6.42,0,0,1,6.81,8.31c-.09.28-8.87,28.9,6.29,48.6,11.25,14.62,33,21.28,64.71,19.78Z"/><path class="b" d="M248,130.49s5.53-22.35,32.83-24.7,43.29,24.7,43.29,24.7-24.47-16.94-41.18-14.35S248,130.49,248,130.49Z"/><path class="b" d="M355.74,130.49s5.53-22.35,32.82-24.7,43.29,24.7,43.29,24.7-24.47-16.94-41.17-14.35S355.74,130.49,355.74,130.49Z"/><path class="c" d="M126,272.63S86,348.73,157,363.85C157,363.85,118.44,335.24,126,272.63Z"/><path class="c" d="M171.18,378.17s-10,68.3,47.82,60.82C219,439,182.16,427.6,171.18,378.17Z"/><path class="b" d="M569.62,265.91s45.88,37,9.18,74.82C578.8,340.73,594.68,306.14,569.62,265.91Z"/><path class="b" d="M532.05,376.86s15.36,48.08-28.65,57.8C503.4,434.66,531,417.41,532.05,376.86Z"/><path class="e" d="M545.85,279.59c-1.47-28-11.09-38.66-26.82-61,14.08-19.41,29.51-65.32,11.21-76.18-17.67-10.48-48.41,15-62.7,28.41a202.21,202.21,0,0,0-35-17.08c-10.24,30.92-63.32,28.09-89.8,9.82,0,0-52.92,40.8-88-.54a201.86,201.86,0,0,0-33.09,20.71c-15.62-11.86-48.86-34-65.33-21.7-17.07,12.72,3.09,56.76,19.13,74.59C162.18,260.49,155.32,272,156.79,300c4.78,91,135.5,183.57,203.18,179.26C433.68,474.57,550.62,370.61,545.85,279.59Z"/><path class="f" d="M449.45,445.19c5-4.13,86.31-71.14,85.77-137.56-.67-82.49-99.94-134.13-99.94-134.13S417,193.17,390.56,196.3s-44.72-13-44.72-13-6.25,10.74-37.09,18.34S256,183.78,256,183.78c-5.36,1.33-36.22,20.13-36.22,20.13s-51.87-40.46-65.85-34.53a13.39,13.39,0,0,1,2.45-2.36c16.48-12.28,49.71,9.84,65.34,21.68A203.46,203.46,0,0,1,254.77,168c35.09,41.33,88,.53,88,.53,26.48,18.26,79.57,21.09,89.8-9.81a202.25,202.25,0,0,1,34.95,17.09c15.92,8.8,51.48,47.76,51.48,47.76l0,0c15.72,22.3,25.31,33,26.8,60.93C548.89,342.51,502.55,405.71,449.45,445.19Z"/><path class="g" d="M374.28,465.85c-67.69,4.31-198.4-88.24-203.18-179.25-1.47-28,5.39-39.53,18.69-63.37-13-14.48-28.77-46.26-25.07-64.5a18.1,18.1,0,0,0-8.36,3.33c-17.07,12.72,3.09,56.76,19.13,74.59C162.18,260.49,155.32,272,156.79,300c4.78,91,135.5,183.57,203.18,179.26,36.81-2.35,84.4-29.45,122.23-67.34C447.18,442.67,406.58,463.8,374.28,465.85Z"/><path class="h" d="M451,384.2c1.84,35-39.32,74-91.93,76.73s-96.74-31.71-98.58-66.73,39.85-57.95,92.46-60.71S449.15,349.18,451,384.2Z"/><path class="h" d="M173.56,186.58c-1.28,5,15.59,43.32,24.19,40.42s18.21-13.57,18.93-19.91S177.92,169.53,173.56,186.58Z"/><path class="d" d="M196.78,233.56c-2.47,0-5.54-1-9-4.13-8.64-8-22.53-36.37-20.46-44.44h0c1.48-5.79,6.64-11.32,16.67-9.48,9.68,1.78,20.55,9.72,24.78,13.05C223.87,200.44,223.24,206,223,207.81c-1,9.14-12.55,21.65-23.24,25.26A9.74,9.74,0,0,1,196.78,233.56ZM180,187.94c.51,2.58,2.87,9.44,6.88,17.41,4.82,9.56,8.48,13.76,10.09,15.09,5.88-2.63,11.69-9.51,13.06-13-1.65-2.34-6.84-7.53-14.19-12.49C187.29,189.16,181.85,187.79,180,187.94Z"/><path class="h" d="M517.28,166.07c1.82,4.91-11.13,45.39-20.13,43.37s-19.82-11.76-21.22-18.09S511.07,149.32,517.28,166.07Z"/><path class="d" d="M497.83,215.92a9.53,9.53,0,0,1-2.08-.23c-11.15-2.5-24.06-13.87-26.07-23-.4-1.8-1.61-7.29,12.3-20.85,3.9-3.81,14-13,23.58-15.78,9.87-2.91,15.63,2.09,17.72,7.74h0c2.94,7.91-8.06,37.95-15.91,46.94C503.84,214.81,500.47,215.92,497.83,215.92ZM482.57,191c1.74,3.41,8.42,9.84,14.71,11.87,1.47-1.49,4.75-6.12,8.63-16.36,3.26-8.61,4.91-15.88,5.12-18.47H511c-1.85,0-7.22,1.95-15.31,8.74C488.69,182.6,484,188.44,482.57,191Zm-.37.8Zm29.08-23.49h0Zm-.23-.93Z"/><path class="d" d="M348.22,364.92c1.4,5.09,11.8,4.59,12.45-.65,2.58-20.83,18.05-20.27,24-26.92s-9.65-11.11-32.41-9.91-37.46,7.24-30.81,13.23S341.78,341.6,348.22,364.92Z"/><path class="d" d="M354.23,374.89c-5.89,0-10.81-3.29-12.18-8.26-3.56-12.91-8.81-14.51-14.9-16.36-3.22-1-6.88-2.09-9.94-4.85-3.33-3-4.52-7-3.19-10.78,3.64-10.29,25.34-12.94,38-13.6s34.8-.31,39.52,9.6c1.71,3.57.95,7.68-2,11-2.6,2.89-6,4.6-9.23,6.25-6.34,3.22-11.82,6-13.21,17.18-.67,5.39-5.34,9.32-11.61,9.78C355,374.87,354.62,374.89,354.23,374.89Zm.16-11.67Zm-.33-1.14a3.38,3.38,0,0,0,.45,0c2.6-16.82,13-22.09,19.93-25.61.75-.38,1.49-.75,2.17-1.12-4.37-1.12-12.31-2.12-24-1.51-11.16.58-18.74,2.3-23,3.82l1.23.37C337.94,340.17,348.53,343.39,354.06,362.08Z"/><path class="d" d="M319.85,343.36a6.41,6.41,0,0,1-6.39-6.07c-.21-4-.38-8.11-.56-12.47-1.33-32.62-3-73.21-23.9-89.74-9.6-7.58-22.62-9.63-39.8-6.28a6.4,6.4,0,0,1-2.45-12.57c20.78-4,37.66-1.09,50.18,8.81,25.53,20.17,27.33,64,28.77,99.25.17,4.33.34,8.41.55,12.33a6.41,6.41,0,0,1-6.06,6.73Z"/><path class="d" d="M386,339.89a6.4,6.4,0,0,1-6.39-6.07c-.21-3.92-.47-8-.75-12.32-2.25-35.19-5.06-79,18.22-101.71,11.42-11.15,27.9-15.87,49-14a6.4,6.4,0,0,1-1.12,12.76C427.46,217,414.72,220.4,406,228.94c-19.07,18.63-16.48,59.17-14.39,91.75.28,4.35.54,8.47.75,12.46a6.4,6.4,0,0,1-6,6.73Z"/><path class="d" d="M326.71,412.16c-8.23,0-16.09-5-22.22-14.27-4.72-7.12-8-16.23-8.37-23.19A6.4,6.4,0,0,1,308.9,374c.2,3.85,2.25,10.74,6.26,16.79,2.2,3.31,6.65,8.8,11.95,8.54,11-.58,22.13-11.7,21.11-31.18a6.4,6.4,0,0,1,12.79-.68c1.45,27.79-16,43.74-33.23,44.64C327.42,412.15,327.07,412.16,326.71,412.16Z"/><path class="d" d="M384.37,409.12a33.6,33.6,0,0,1-23.71-10.29c-5.22-5.28-11.61-14.89-12.44-30.66a6.4,6.4,0,0,1,12.79-.68c.61,11.76,5.1,18.64,8.76,22.34a20.59,20.59,0,0,0,15.5,6.47c5.28-.28,9.15-6.23,11-9.74,3.36-6.44,4.67-13.51,4.47-17.35a6.4,6.4,0,1,1,12.79-.67c.36,7-1.95,16.36-5.91,23.94-5.34,10.25-13,16.15-21.66,16.6C385.42,409.11,384.89,409.12,384.37,409.12Z"/><path class="d" d="M291.56,279.38s-.23-.24-.38-.37l-.5-.5c-.34-.34-.71-.67-1.08-1a29.84,29.84,0,0,0-2.35-1.85,27.12,27.12,0,0,0-5.05-2.87A21.44,21.44,0,0,0,271.72,271a24,24,0,0,0-5.11,1,29.35,29.35,0,0,0-5,2.17,45.84,45.84,0,0,0-9.41,6.95,10.72,10.72,0,1,1-14.65-15.66,10.61,10.61,0,0,1,1.45-1.15l.29-.18a64.76,64.76,0,0,1,15.24-7.43,47.64,47.64,0,0,1,8.68-2,41,41,0,0,1,9.13-.1,36.82,36.82,0,0,1,16.73,6.1,40,40,0,0,1,6.55,5.47c1,1,1.9,2.05,2.78,3.14.44.54.86,1.1,1.28,1.69l.62.89L301,273a4.26,4.26,0,0,1-1.26,5.89,4.31,4.31,0,0,1-2.43.68Z"/><path class="d" d="M401,269.23l.61-1.11.55-.94c.37-.61.75-1.2,1.15-1.77a39.3,39.3,0,0,1,2.54-3.35,40,40,0,0,1,6.12-5.93,36.78,36.78,0,0,1,16.23-7.34,40.47,40.47,0,0,1,9.11-.58,47.18,47.18,0,0,1,8.8,1.33,65.17,65.17,0,0,1,15.76,6.27l.25.14a10.72,10.72,0,0,1-10.27,18.83,10.89,10.89,0,0,1-1.58-1.06,45.51,45.51,0,0,0-9.91-6.22,29.12,29.12,0,0,0-5.14-1.8,24.64,24.64,0,0,0-5.17-.65,21.6,21.6,0,0,0-10.31,2.59,26.38,26.38,0,0,0-4.83,3.25,28,28,0,0,0-2.2,2c-.35.35-.69.71-1,1.07l-.47.54c-.13.14-.32.39-.35.4l-5.72.58a4.25,4.25,0,0,1-4.17-6.27Z"/><path class="d" d="M355.35,485.81c-37.76,0-91.15-25.27-135-64.28-43-38.32-67.89-81.35-70-121.18-1.48-28.23,5.16-41.12,17.34-63-12.16-15.32-26.06-43.34-24.09-63.23.74-7.5,3.82-13.45,8.89-17.23,17.49-13,46.5,2.32,69.13,18.83a209.87,209.87,0,0,1,30.25-18.43,6.41,6.41,0,0,1,7.75,1.58c12.7,15,29.59,19.63,50.19,13.85a97,97,0,0,0,29-14.24,6.38,6.38,0,0,1,7.53-.2c16.73,11.54,44,15.82,62.15,9.74,9.36-3.14,15.4-8.62,17.94-16.3a6.41,6.41,0,0,1,8.33-4,209.87,209.87,0,0,1,31.88,15.12c20.78-18.79,48-37.1,66.78-26,5.44,3.23,9.12,8.83,10.65,16.21,4,19.57-6.85,48.88-17.34,65.39l1.82,2.55c13.36,18.7,22.18,31,23.61,58.18,2.26,43.18-21.56,93.13-65.37,137.06-40.25,40.36-88.72,66.93-126.5,69.34C358.73,485.76,357.05,485.81,355.35,485.81Zm-187-320.92a13.45,13.45,0,0,0-8.2,2.3c-2.17,1.62-3.41,4.31-3.8,8.23-1.53,15.43,11.57,43.28,23.86,57a6.41,6.41,0,0,1,.83,7.4l-.92,1.63c-12.57,22.52-18.32,32.79-17,58.28C165.06,335.54,189,376.46,228.9,412c42.73,38,96.46,63.11,130.66,60.91,67.89-4.32,184.6-103.24,179.89-192.95-1.23-23.4-8.33-33.35-21.24-51.41l-4.42-6.21a6.43,6.43,0,0,1,.05-7.45c10.8-14.88,20.91-44,17.77-59.13-.8-3.86-2.32-6.41-4.64-7.79-9.71-5.76-30.8,4.81-55.05,27.58a6.39,6.39,0,0,1-7.74.78A194,194,0,0,0,436,162c-4.66,8.39-12.6,14.62-23.32,18.22-20.54,6.89-49.65,3-69.69-8.91A109.1,109.1,0,0,1,313.7,185c-23.85,6.81-44.6,2-60.34-14a195.17,195.17,0,0,0-27.75,17.84,6.41,6.41,0,0,1-7.78,0C197.42,173.37,179.62,164.89,168.39,164.89Z"/><circle class="a" cx="404.04" cy="352.02" r="5.92"/><circle class="a" cx="307" cy="356.16" r="5.92"/><circle class="a" cx="280.62" cy="373.75" r="5.92"/><circle class="a" cx="425" cy="363.85" r="5.92"/></svg>