<svg xmlns="http://www.w3.org/2000/svg" viewBox="0 0 700 700"><defs><style>.a{fill:#7de9f4;}.b{fill:#40cbe2;}.c{fill:#99faff;}.d{fill:#5b2015;}</style></defs><polygon class="a" points="190.4 477.03 217.45 474.08 245.95 491.89 251.72 519.61 227.07 531.29 190.4 509.02 190.4 477.03"/><polygon class="a" points="251.72 520.58 276.9 510.27 309.21 519.52 322.41 544.57 301.94 562.61 260.55 551.33 251.72 520.58"/><polygon class="a" points="525.43 469.03 498.29 467.18 470.53 486.13 465.89 514.06 491 524.74 526.73 501 525.43 469.03"/><polygon class="a" points="465.93 515.03 440.35 505.76 408.44 516.31 396.27 541.88 417.46 559.07 458.36 546.11 465.93 515.03"/><polygon class="a" points="322.82 545.19 342.11 525.99 375.49 522.11 397.3 540.16 385.34 564.67 342.8 570.17 322.82 545.19"/><polygon class="b" points="252.54 510.04 233.82 518.91 197.15 496.64 197.15 471.69 192.21 472.23 192.21 504.21 228.88 526.48 253.53 514.8 252.54 510.04"/><polygon class="b" points="308.69 550.23 267.3 538.95 259.9 513.17 253.53 515.77 262.36 546.52 303.75 557.8 324.22 539.76 323.06 537.57 308.69 550.23"/><polygon class="b" points="403.9 527.66 411.84 510.98 410.25 511.51 402.94 526.86 403.9 527.66"/><polygon class="b" points="424.21 546.69 403.16 529.61 399.11 537.91 419.27 554.26 460.16 541.31 461.75 534.8 424.21 546.69"/><polygon class="b" points="497.75 512.36 472.64 501.69 476.49 478.49 472.34 481.32 469.02 501.33 472.68 502.66 470.76 510.56 492.8 519.93 528.54 496.19 528.37 492.01 497.75 512.36"/><polygon class="b" points="349.55 557.8 330.75 534.29 324.63 540.38 344.61 565.37 387.15 559.87 390.76 552.47 349.55 557.8"/><polygon class="c" points="469.12 498.75 496.87 479.79 524.02 481.64 524.86 502.24 526.73 501 525.43 469.03 498.29 467.18 470.53 486.13 465.89 514.06 466.53 514.33 469.12 498.75"/><polygon class="c" points="216.04 486.69 244.54 504.5 248.05 521.35 251.72 519.61 245.95 491.89 217.45 474.08 190.4 477.03 190.4 489.49 216.04 486.69"/><polygon class="c" points="340.69 538.61 374.08 534.72 392.51 549.97 396.41 541.99 399.59 544.57 407.03 528.93 438.94 518.37 462.99 527.09 465.93 515.03 440.35 505.76 408.44 516.31 397.15 540.03 375.49 522.11 342.11 525.99 322.82 545.19 327.81 551.43 340.69 538.61"/><polygon class="c" points="254.81 531.35 275.49 522.89 307.8 532.13 316.91 549.42 322.41 544.57 309.21 519.52 276.9 510.27 251.72 520.58 254.81 531.35"/><path class="d" d="M227.07,537.69a6.39,6.39,0,0,1-3.32-.93l-36.67-22.27A6.4,6.4,0,0,1,184,509V477a6.4,6.4,0,0,1,5.71-6.36l27-2.95a6.39,6.39,0,0,1,4.09.93l28.5,17.81a6.42,6.42,0,0,1,2.88,4.12L258,518.3a6.4,6.4,0,0,1-3.53,7.09l-24.65,11.68A6.27,6.27,0,0,1,227.07,537.69ZM196.8,505.42,227.45,524l17-8-4.19-20.11-24.3-15.19-19.14,2.09Z"/><path class="d" d="M301.94,569a6.48,6.48,0,0,1-1.68-.23L258.87,557.5a6.41,6.41,0,0,1-4.47-4.41l-8.83-30.74a6.39,6.39,0,0,1,3.73-7.69l25.18-10.31a6.38,6.38,0,0,1,4.18-.23L311,513.37a6.41,6.41,0,0,1,3.91,3.17l13.19,25.05a6.39,6.39,0,0,1-1.43,7.78l-20.46,18A6.45,6.45,0,0,1,301.94,569ZM265.71,546.1l34.59,9.42,14.1-12.42-9.58-18.18L277.27,517l-17.81,7.29Z"/><path class="d" d="M491,531.14a6.47,6.47,0,0,1-2.51-.51L463.39,520a6.39,6.39,0,0,1-3.81-6.94l4.64-27.93a6.36,6.36,0,0,1,2.7-4.23l27.76-19a6.37,6.37,0,0,1,4-1.1l27.15,1.86a6.41,6.41,0,0,1,6,6.12l1.3,32a6.42,6.42,0,0,1-2.86,5.59l-35.73,23.74A6.47,6.47,0,0,1,491,531.14Zm-18-21,17.3,7.35,29.86-19.83L519.27,475l-19.21-1.31L476.4,489.88Z"/><path class="d" d="M417.46,565.47a6.47,6.47,0,0,1-4-1.43l-21.18-17.19a6.4,6.4,0,0,1-1.74-7.72l12.16-25.57a6.41,6.41,0,0,1,3.77-3.32l31.91-10.56a6.4,6.4,0,0,1,4.19.06L468.11,509a6.4,6.4,0,0,1,4,7.53l-7.57,31.08a6.43,6.43,0,0,1-4.29,4.59l-40.9,12.95A6.37,6.37,0,0,1,417.46,565.47Zm-13.24-25.39,14.59,11.84L453,541.1l5.36-22-18.09-6.56-27.21,9Z"/><path class="d" d="M342.8,576.58a6.41,6.41,0,0,1-5-2.41l-20-25a6.39,6.39,0,0,1,.49-8.53l19.28-19.19a6.34,6.34,0,0,1,3.78-1.82l33.38-3.89a6.38,6.38,0,0,1,4.82,1.43l21.81,18a6.41,6.41,0,0,1,1.68,7.74l-12,24.52a6.43,6.43,0,0,1-4.94,3.54l-42.54,5.5A5.76,5.76,0,0,1,342.8,576.58Zm-11.39-30.91,14.14,17.69,35.55-4.59,8.24-16.89-15.83-13.1-28.46,3.32Z"/></svg>