<svg xmlns="http://www.w3.org/2000/svg" viewBox="0 0 700 700"><defs><style>.a{fill:#62d5e8;}.b{fill:#42c1ce;}.c{fill:#7de9f4;}.d{fill:#5b2015;}</style></defs><path class="a" d="M508,406.06c-26.78,17.42-92,51.63-150.1,51.63S229.88,433,203.1,415.61s-36.7,43.7-23.29,69.54S279.13,540.07,357.94,536c78.81,4,164.72-25,178.14-50.89S534.82,388.64,508,406.06Z"/><path class="b" d="M367.35,521.45c-78.8,4-164.72-25-178.13-50.88-7.39-14.24-7.69-39.16-2-55.78-14.25,10-17.7,50.54-7.41,70.36C193.22,511,279.13,540.07,357.94,536c78.81,4,164.72-25,178.13-50.89a35.23,35.23,0,0,0,2.37-5.9C513.07,502.46,437.4,525,367.35,521.45Z"/><path class="c" d="M198.87,434.67c26.78,17.42,96.7,42.08,154.84,42.08S477,442.54,503.81,425.12c21.31-13.87,34.95,28.08,32.87,58.8,12.35-26.78-2.27-95-28.64-77.86-26.78,17.42-92,51.63-150.1,51.63S229.88,433,203.1,415.61c-16.55-10.77-26.65,8.46-28.8,30.82C179.08,434.11,187.44,427.23,198.87,434.67Z"/><path class="d" d="M372.64,542.8c-5,0-9.88-.11-14.7-.36-36.82,1.85-78.87-3.44-115.44-14.51-36-10.89-60.89-25.41-68.37-39.83-10.6-20.42-9-62.14,7.23-76.82,7.13-6.45,16.32-6.83,25.23-1,25.79,16.78,94.53,41.05,151.35,41.05,54.34,0,117.73-31.8,146.61-50.6h0c8.57-5.57,17.74-4.9,25.17,1.83,16.86,15.29,23.61,63.28,12,85.58-7.48,14.42-32.4,28.94-68.37,39.83A358.31,358.31,0,0,1,372.64,542.8ZM194.11,418.93a6,6,0,0,0-4.15,1.84c-10.63,9.63-13.18,44.66-4.47,61.44,11.23,21.64,92.81,51.5,172.12,47.43h.66c79.31,4.06,160.89-25.79,172.12-47.43,8.77-16.89,3.22-58.88-9.27-70.2-3.15-2.86-5.84-3-9.59-.58-8.28,5.39-83,52.67-153.59,52.67-60.06,0-130.54-25.05-158.33-43.12A10.31,10.31,0,0,0,194.11,418.93Z"/><path class="a" d="M472.9,521.38c.09,0,13.5,64.92,24.79,58.33s16.86-25.89,16.86-25.89S548,578.77,555.1,568.88,534.25,501,531.5,491.4C531.5,491.4,514.55,512.18,472.9,521.38Z"/><path class="d" d="M496.05,586.58a9.85,9.85,0,0,1-4-.85c-3.44-1.5-12.58-5.49-25.16-61.79-.09-.42-.16-.71-.2-.88a6.41,6.41,0,0,1,4.8-7.93c38.64-8.54,54.88-27.61,55-27.8a6.41,6.41,0,0,1,11.09,2.31c.59,2,3,7.88,5.6,14.07,16.55,39.69,23.32,60.13,17.06,68.89a11.86,11.86,0,0,1-8.06,4.81c-9.8,1.53-25-7.2-34.59-13.57-3.06,7-8.5,16.59-16.74,21.4A9.69,9.69,0,0,1,496.05,586.58Zm-15.5-60.46c6.94,29.77,12.76,42.85,15.72,46.8,6.43-5.19,10.88-16.58,12.13-20.88a6.41,6.41,0,0,1,10-3.35c12.4,9.22,26.86,16.6,31.45,16.16.18-1.74,0-7.23-5-22-3.91-11.5-9.39-24.64-13.39-34.24-.9-2.18-1.74-4.18-2.48-6C520.62,509.51,505.06,519.7,480.55,526.12Z"/><path class="c" d="M525.22,431c-4.47,11.84-93.35,53.78-132.59,52.88-4.23-.1,18.83,9.87,18.83,9.87s-13.18,7.27-13.89,13.12,20.83,4.09,32.83,3,92.94-25.41,104-55.25C534.38,454.69,530.05,431.19,525.22,431Z"/></svg>