<svg xmlns="http://www.w3.org/2000/svg" viewBox="0 0 700 700"><defs><style>.a{fill:#fce7be;}</style></defs><path class="a" d="M468,149.73a6.4,6.4,0,0,1-5.5-9.69l19-31.77-15,3.42a6.4,6.4,0,0,1-2.84-12.48l29.62-6.75a6.4,6.4,0,0,1,6.83,9.58l-18.88,31.61,22-5.18a6.4,6.4,0,1,1,2.92,12.47h0l-36.69,8.62A5.55,5.55,0,0,1,468,149.73Z"/><path class="a" d="M420.09,194a6.39,6.39,0,0,1-6-8.62l12.83-34.66-14.16,6.12a6.41,6.41,0,0,1-5.08-11.76L435.57,133a6.4,6.4,0,0,1,8.55,8.1l-12.79,34.61,20.73-9.12a6.4,6.4,0,1,1,5.16,11.72l-34.56,15.19A6.14,6.14,0,0,1,420.09,194Z"/><path class="a" d="M537.61,127a6.4,6.4,0,0,1-5.17-10.17l21.28-29.12L539,89.7a6.4,6.4,0,1,1-2.53-12.54,6,6,0,0,1,.85-.12l29.55-3.94a6.39,6.39,0,0,1,6,10.11l-21.14,29.05,21.78-3a6.4,6.4,0,1,1,1.76,12.68L538.49,127A6.46,6.46,0,0,1,537.61,127Z"/></svg>